<svg width="906" height="720" viewBox="0 0 906 720" fill="none" xmlns="http://www.w3.org/2000/svg">
<path fill-rule="evenodd" clip-rule="evenodd" d="M559.2 687.998H560.8C562 693.098 566.5 704.298 566.7 706.698H563C562.7 703.998 559.2 694.998 559.2 687.998ZM702.6 313.598C702.4 311.498 702.9 311.998 701 311.498C701.2 311.798 701.3 311.998 701.6 312.498L702.6 313.598ZM431.6 344.398C434.1 344.298 434.3 344.398 434.4 341.898L431.6 344.398ZM238.1 189.298C240.7 192.798 250.8 190.898 254.6 190.898C253.9 188.298 251.5 188.598 246.4 187.898C240.1 187.098 238.8 186.398 238.1 189.298ZM325.6 461.798C325.6 465.698 334.7 467.698 334.7 458.098C334.6 454.098 325.6 450.798 325.6 461.798ZM344.8 269.298C344.8 270.498 345 270.698 345.3 271.498C346.2 273.698 348.3 275.198 351.2 275.198C351.8 273.498 352.7 273.598 354 272.598C356.6 270.398 356.9 266.198 354.5 264.498C347.2 259.398 344.8 268.698 344.8 269.298ZM558.6 266.098C558.6 268.698 559.4 271.098 561.3 272.498C563.3 268.198 555.5 264.998 573 264.998C574.6 264.998 574.1 264.898 575.4 265.298C577.2 265.898 580.1 268.198 579 264.498C576.9 257.998 558.6 258.598 558.6 266.098ZM302.6 465.598C307.1 465.598 309 462.398 309 459.698C309 454.198 301.9 452.798 299.2 455.198C296 458.398 297.5 465.598 302.6 465.598ZM345.8 460.198C345.8 469.398 358.6 464.998 358.6 459.098C358.6 455.698 355.5 453.298 352 453.998C349.9 454.398 347.4 455.898 346.5 457.598C346 458.698 345.8 458.898 345.8 460.198ZM636.5 274.598C640.2 273.598 635.6 272.998 643 265.598C645.9 262.698 651.3 263.498 652.5 268.698H654.1C654.1 263.998 652.6 262.098 648.8 261.198C649.9 259.698 651.2 259.398 653.2 258.698C660.2 255.998 658.1 259.798 660.4 258.798C665 256.698 651 246.798 638.8 266.698C637 269.498 636.5 270.298 636.5 274.598ZM248.8 155.198C248.8 156.598 249.1 156.698 249.3 157.898C253.5 158.898 253.4 157.698 257.3 157.398L260.5 162.698C261.8 164.898 263 165.798 265.8 166.398C268 161.798 264.5 149.198 255.1 151.398C253.3 151.798 248.8 153.598 248.8 155.198ZM579.4 253.798C581.7 253.198 580.7 252.098 583.1 250.598C584.3 249.898 586.4 248.898 587.9 248.398C604.8 243.698 610.2 250.198 611.4 250.598C613.7 247.898 609.6 242.098 599.1 242.098C590.9 242.098 576.6 247.898 579.4 253.798ZM167.2 149.298C167.2 151.898 168.8 151.498 171.3 152.698C173.5 153.698 174 153.998 175.2 155.698C173.3 158.498 170.4 159.598 170.4 164.798C170.4 166.798 170.2 164.998 170.9 166.398C173.3 165.498 174.1 161.398 177.8 158.898C179.3 161.198 180.2 163.398 181.6 165.798C182.1 166.598 183 168.298 183.6 169.098C184.7 170.598 185.1 171.098 187.4 171.098C187.7 169.698 187.9 170.098 187.9 168.998C187.9 165.098 182.9 155.898 179.8 152.498C179.7 152.398 179.4 152.098 179.3 151.898C173.7 146.098 167.2 146.098 167.2 149.298ZM222.6 143.998C222.6 155.698 229.5 155.098 232.6 151.898C235.8 148.498 235.4 140.398 232.9 136.798C228.1 129.598 222.6 134.098 222.6 143.998ZM217.8 168.498C217.8 166.798 221.5 164.198 223.1 164.198C227.8 164.198 231.8 181.298 258.8 181.298C270.3 181.298 273.2 168.798 278 180.198C279.8 184.498 279 184.998 277.5 186.098C275.7 184.798 275.4 182.398 274.3 180.198C272 181.798 271.4 182.898 268.2 184.298C258.3 188.498 244.2 184.898 236.1 179.998C232.4 177.798 228.4 174.498 225.7 171.198C224.7 169.998 223.5 168.798 223.1 167.398C216.6 170.798 222.2 169.598 218.3 170.098C217.7 168.698 217.8 170.498 217.8 168.498ZM393.8 192.998C392.3 192.998 386.9 187.498 385.7 186.198C384.3 184.798 379.6 179.098 377.8 179.098C373.7 179.098 381.7 188.398 383.1 190.298C393 203.298 393.9 203.298 412.2 189.498C415.5 186.998 432.2 174.898 432.2 172.698C432.2 159.298 397.7 192.998 393.8 192.998ZM567.7 280.998C575.8 280.998 587.1 276.198 593 270.498C594.8 268.798 597.6 266.198 600.2 265.498C603.1 271.598 598.6 280.398 595.5 284.798C590.2 292.298 585.3 297.998 573.5 297.998C569.8 297.998 565.9 298.298 563.9 295.298C565 294.798 569.9 294.398 571.4 294.298C578.3 293.698 585.6 292.498 589.5 286.798C580.3 286.998 573.8 292.598 571.4 293.198C571.4 284.998 572.4 284.498 566.9 283.798C563.5 283.398 557.3 282.698 557 278.798C560.5 278.998 560.8 280.998 567.7 280.998ZM348 159.998C359 159.998 374.5 157.798 385.9 157.898C390.8 157.898 393.6 157.398 398.7 157.398L411.5 156.898C415.9 156.898 420.4 156.898 424.8 156.898C433.3 156.898 442 155.798 450.4 155.798V205.898C450.4 207.798 449.1 207.398 447.3 207.598C427.1 208.998 415 209.398 394.4 209.698C392.5 209.698 378.1 210.698 376.3 211.898C374.5 210.598 376 210.598 373.9 209.998C371 209.198 364.8 218.098 363.3 220.298C362.3 221.898 361 224.198 359.7 225.198C358.5 219.998 357.1 215.298 355.9 209.798C354.1 201.998 353.6 193.598 351.5 185.398C351 183.898 350.4 165.098 348 159.998ZM343.7 160.998C343.7 159.598 343.5 161.598 344.3 159.998C344.4 159.898 344.4 159.698 344.5 159.598C345.7 156.898 344.6 156.198 348.3 155.398C352.8 154.398 361.4 153.698 366.2 153.098L422.6 149.298C429 149.298 446.9 147.098 450.9 148.698C454.5 150.198 452.9 151.998 453.3 155.398C454.3 164.098 454.7 164.298 455.2 173.798C455.5 179.398 456.6 197.098 454.9 201.798C453.8 204.798 453.6 202.398 453.6 206.898C455 207.298 456.8 208.398 456.8 210.098C456.8 215.998 449.8 215.198 445.9 215.698C438 216.898 397.3 216.498 386.9 216.498C384.5 216.498 374.6 217.098 373 217.598C371.3 218.198 371.9 217.898 370.9 219.298L362.8 229.898C361.4 231.898 361.5 232.498 359.6 234.198C356.4 232.598 358.4 234.398 356.6 231.298C355.7 229.598 355.2 229.898 354.3 228.298C349.1 218.398 345.5 183.198 344.6 170.798C344.5 167.298 343.7 165.098 343.7 160.998ZM374.1 444.198C374.1 451.798 373.9 460.798 374.7 468.098C374.9 469.998 376.1 480.798 375.7 482.598C375.1 485.398 369.4 483.898 362.5 484.898L340.5 485.798C337.5 485.798 336.8 486.398 333.6 486.398C327.9 486.398 323.9 486.898 318.6 486.898C312 486.898 296.3 489.098 289.8 489.098C288.9 485.198 287.8 481.298 287.3 477.198C286.1 467.898 283.9 445.198 283.9 436.798L322.3 435.698C327.3 435.698 330.6 435.098 335.1 435.198C353 435.298 369.4 434.098 386.8 434.098L385.3 435.298C384.7 435.698 384.3 435.898 383.6 436.298C382.3 437.098 381.3 437.698 379.8 438.398C377.3 439.698 374.1 440.198 374.1 444.198ZM282.9 432.998L334.1 430.398C336.8 430.298 337.4 429.798 340.5 429.798L359.7 429.298C368.5 429.298 376.5 428.798 385.8 428.798C396.5 428.798 392.3 429.898 399.7 429.898C400.7 434.298 396.6 436.398 392.2 439.498C390.4 440.798 388.7 441.898 386.8 443.098C385.8 443.798 385.1 444.198 384.2 444.698C383 445.398 382.1 445.298 382.1 446.898C382.1 459.498 383.7 468.898 383.7 479.998C383.7 483.998 384.4 488.398 381.7 490.198C376.9 493.398 358.7 493.898 352.8 493.798C348.4 493.798 345.4 494.298 340.5 494.298L315.4 495.398C312.3 495.398 311.3 495.698 309 495.898C306.9 496.098 304.9 495.798 302.8 496.098C299.2 496.598 295.3 496.998 290.9 496.998C285.4 496.998 282.8 497.398 280.8 483.598C279.3 473.098 278 457.698 278.1 447.398C278.1 443.198 275.9 431.398 280.2 431.398C282.8 431.398 282.5 431.398 282.9 432.998ZM838.6 191.398C842.2 193.798 846.1 200.298 846.1 206.298C846.1 218.698 832.2 235.898 832.2 247.898C832.2 251.498 832 253.598 832.8 256.898C833.2 258.598 833.7 259.298 833.8 261.198C831.4 261.298 829.6 261.698 826.3 261.698C824.3 253.198 822 256.498 825.4 246.398C826.6 242.798 827.3 243.098 827.3 238.698C827.3 233.698 822.1 241.198 817.7 243.998C814.5 245.998 814 246.998 811.2 249.798L808.7 252.098C795.7 262.898 783.4 272.398 765 272.398C752.6 272.398 736.7 266.398 731.4 256.398C739.7 256.398 758.8 249.098 766.2 245.398C769.1 243.898 770.7 242.898 773.4 241.298C782.5 235.898 781.5 262.898 802.8 250.498C811.3 245.598 813.7 241.698 816.7 239.898C818.2 238.998 818.2 239.398 819.6 237.998C820.1 237.398 819.8 237.798 820.3 237.098L822.8 234.798C826.9 230.698 830.9 224.398 833.1 218.998L836.9 210.498C840.5 202.398 838.8 196.998 838.6 191.398ZM726.6 254.398C726.6 255.898 731.1 262.598 732.6 264.398C736.3 268.798 741.5 272.498 746.8 274.698C748.8 275.498 750.5 276.098 752.7 276.798C768.3 281.298 785.6 278.898 798.2 270.098C806.1 264.598 815.8 252.498 818.8 251.698C818.8 255.298 819.6 259.198 820.3 261.998C821.2 265.898 821.6 267.898 825.4 268.698C828.7 269.398 832.1 269.098 834.9 267.798C844.6 263.198 839.1 257.298 839.1 249.598C839.1 242.198 843.1 234.198 845.5 228.798C848.1 222.998 851.9 216.198 851.9 207.998C851.9 193.598 843.3 188.598 834.8 184.098L824.7 180.298C823.2 182.498 822.2 184.598 820.6 186.898L809.3 202.198C808.4 203.298 807.8 203.698 806.8 204.998C805 207.298 803.7 208.498 801.9 210.698L784.9 226.198C769.1 239.198 753 244.698 733.8 250.298C731.6 250.898 726.6 252.198 726.6 254.398ZM310.1 378.598C312.9 374.398 318.4 368.198 322.3 361.998C322.9 360.998 323.3 360.298 323.9 359.398C335.3 359.398 348.1 355.698 352.7 355.698C352.7 361.798 354.4 366.798 354.8 372.198C339.2 372.198 334.2 373.198 320.4 376.198C317.3 376.998 312.9 378.398 310.1 378.598ZM284 376.998C285.9 377.498 287.1 378.298 288.7 379.198C290.3 380.098 291.5 380.698 293.2 381.598C295.4 382.698 295.7 383.398 297.8 382.798C298.2 382.698 302.3 381.298 302.6 381.098L313.9 365.198C309.3 365.198 308 364.798 305.1 362.798C303.1 361.398 300.1 359.598 299.5 357.198L284 376.998ZM318.6 358.898L317.6 359.498L318.6 358.898ZM279.2 373.298C276.6 371.598 275.7 370.598 273.7 368.098C272.7 366.898 272.3 366.498 271.4 365.098C270.3 363.398 270.4 363.198 269.6 361.598C271 360.698 271.3 360.198 272.3 358.898C273.3 357.598 273.8 357.298 274.8 356.098L290.4 338.698C291.3 342.398 293.6 350.098 296.3 353.098C293.7 356.798 282.1 371.298 279.2 373.298ZM289.3 330.098C289.3 333.998 287.8 333.998 283.8 337.998L269.4 356.098C268.2 357.898 269.8 356.498 268 357.898C266.1 349.598 262.7 353.898 262.7 355.198C262.7 365.198 270.7 376.798 279.2 381.298C282.1 382.898 285.2 384.698 288.8 385.598L283 387.798C281 388.398 279.1 388.998 276.9 389.698L216.6 410.498C210.2 412.098 196 416.598 190.2 416.598C193 411.298 193.3 414.598 196.3 410.398L223.5 375.198C225.3 372.898 227.4 370.898 229.2 368.698C231.3 365.998 233 364.498 235.4 362.098C237.9 359.498 246.2 352.298 249.1 351.298C251.9 350.298 256.9 350.298 258.4 348.298C260 346.098 258 346.798 260.5 343.998C266.7 336.998 283 319.898 292.1 319.098C289.6 322.498 289.7 319.598 289.2 327.398C288.9 329.498 289.3 327.798 289.3 330.098ZM367.7 315.698C366.2 316.098 365.9 316.598 364.6 317.398C349.8 325.898 337.5 327.198 325.2 334.098C320.5 336.698 320.9 334.398 325.9 330.998C329.3 328.698 336.2 325.498 340 323.798C345.7 321.198 352.1 318.798 357.4 315.598C359.9 314.098 365.8 310.298 367.2 308.298C363.5 307.398 365.9 307.098 361.5 308.398C354.4 310.498 328 320.898 325.1 320.598C322 320.298 321.5 317.098 326.1 314.698C328 313.798 329.4 313.098 331.6 312.198C335.6 310.598 338.7 309.098 342.9 307.498C345.2 306.598 347.2 305.998 349.2 305.198L367.3 299.298C362.9 296.198 350.7 298.098 346.2 298.998C338.8 300.498 326.6 304.798 321.1 309.598C320.1 310.498 319.3 312.098 317.7 312.098C314.2 311.998 317.3 308.098 317.7 306.198C319.8 296.198 322.3 294.898 323.1 291.298C320.6 292.998 314.5 299.098 312 301.598C307 306.698 298.8 317.898 298.6 318.098C293.4 323.398 294 326.198 294.9 331.798C296.1 339.098 298.6 345.898 302.8 351.698C303.7 352.998 304.7 354.398 305.9 355.598C307.2 356.898 308.3 357.698 309.2 359.198C311.4 358.698 312.3 358.098 314.5 359.198L314.6 358.398C314.9 357.598 314.5 358.198 315 357.598C315.5 357.098 340.2 346.198 343.2 342.098C340.7 342.698 337.6 344.498 334.9 345.498C333.1 346.198 332.4 346.398 330.5 347.098C327.6 348.098 328.9 348.498 326.7 346.898C327.3 344.598 329.6 343.798 331.5 342.698C337.9 338.998 342 337.098 348.7 332.598C353 329.698 360.8 324.598 364.2 320.898L365.7 319.198C366.9 317.398 367.2 317.398 367.7 315.698ZM334.1 352.998C334.8 352.398 334.3 352.798 335.3 352.098C336 351.698 336.4 351.498 337.1 351.198C342.8 348.398 344.7 347.598 349.9 343.698C350.6 343.198 350.7 343.098 351.4 342.498L354.4 339.698C354.5 339.598 354.6 339.498 354.6 339.398C359.2 333.998 356.1 338.098 359.3 332.898C360.7 330.498 365.6 327.898 367.8 325.898C372 322.198 375.7 317.298 375.7 311.398C375.7 310.098 375.2 310.498 374.8 309.598C373.6 307.298 375.1 308.298 373 304.398C377 301.698 378.1 298.498 373.9 294.898C362.1 284.898 334.7 295.998 323.9 301.698L334.8 278.498C336.2 275.798 345.1 257.898 345.7 255.298C348.6 257.298 357.3 255.598 361.4 254.998C371.4 253.598 386.4 253.098 394.5 251.898C397 251.498 400.6 251.398 402.8 251.098C404.2 250.898 405.6 251.098 407 250.998C409.4 250.898 408.9 250.498 411.3 250.498L376.1 316.098C374.8 318.598 373.6 320.798 372.2 323.398L360.7 345.498C359.6 347.798 358.4 347.398 352.7 348.698C350.4 349.498 336.7 352.998 334.1 352.998ZM273.3 152.998L272.2 152.698L273.3 152.998ZM271.2 151.998L270.7 151.498L271.2 151.998ZM207.7 141.298C207.7 149.798 213.1 156.598 220.1 160.398C232.9 167.398 253.1 158.198 253.1 139.198C255.2 139.198 257.1 138.798 258.4 138.098C259.5 151.598 268.3 158.898 282.4 158.898C286.9 158.898 289.2 156.998 292.5 156.198C292.4 160.898 290.2 170.998 288.8 175.498C285.4 186.398 270.6 213.798 257.8 213.798C239.7 213.798 221.9 200.098 215.7 199.898C215.3 205.098 213.4 202.598 220.3 211.298C225.8 218.198 237.7 233.198 247.2 228.098C247.6 233.198 250.1 235.098 250.9 238.798C247.9 238.798 247.2 238.198 244 238.198C241 238.198 239.1 238.098 236.9 237.798C222.5 235.898 219.5 235.598 206.8 229.398C200.1 226.098 200.8 235.898 223.6 241.498C233.9 243.998 241.4 245.098 253.6 245.098C258.5 245.098 272.3 244.898 272.3 240.798C272.3 237.398 262.9 238.698 259.5 238.698C253.4 238.698 255 235.798 252.6 230.698C259.2 230.698 270 234.098 272.6 237.898C276.1 242.998 275.8 253.398 278.7 258.998C281.2 258.298 280.3 256.798 281.9 258.998C280.4 259.398 280.9 259.398 279.3 260.098C278.3 260.598 277.6 260.898 276.4 261.498C271.3 263.898 262 266.498 256.3 266.998L253.1 250.998C249.9 251.098 249.9 251.798 249.9 254.198C249.9 258.998 251.6 263.498 252.6 267.498C234.7 267.898 237.3 273.198 235.4 258.598C234.8 253.698 235.8 247.198 233.4 247.198C226.2 247.198 231 264.998 231.3 267.998C227.3 267.998 224.1 267.498 220.6 266.898C215.7 266.098 214.3 266.898 212.5 262.698C209.9 256.798 208.3 250.998 208.3 242.298C203.2 241.098 204 244.398 204 250.298C204 254.098 206.4 260.998 207.7 263.598C205 263.398 199.5 260.698 197.5 259.398C192.2 256.098 193.7 256.698 191.8 250.698C190.1 245.098 183.5 228.298 187 223.098C187.7 221.998 189.1 221.398 190.5 220.798C193 219.698 196.2 218.298 198.7 217.798C198.5 219.898 198.3 223.098 198 225.698C197.7 228.398 197.6 229.898 200.8 230.598C202.9 228.598 203.3 226.198 203.8 222.898C205.9 209.298 203.4 193.198 197.6 181.498C192.3 170.698 192.8 174.698 188.1 174.798C176.6 174.898 161.3 167.198 161.3 156.998C161.3 147.198 164.7 143.598 175.3 142.698C176.9 142.598 178.5 143.198 179.7 143.898C182.8 145.798 185.7 151.498 191.2 151.598C191.3 147.898 192.8 149.898 192.1 145.898C191.6 143.098 190.3 141.998 193.8 141.898C198.4 142.098 203.7 142.198 207.7 141.298ZM212.5 139.698C212.5 124.998 228.5 117.698 237.4 122.198C239.1 123.098 247.7 130.998 247.7 137.498C247.7 143.798 247.6 147.398 242.8 152.298C230.4 164.898 212.5 154.098 212.5 139.698ZM298.4 142.898C298.2 139.898 297.9 137.598 297.9 133.798H299.5C299.5 135.498 300.6 139.698 298.4 142.898ZM270.6 151.398C268.6 150.898 267.7 149.498 266.6 147.898C258.4 135.798 267.4 123.098 280.4 120.698C285.9 119.698 286.1 120.998 287.1 121.598C292.4 124.698 294.3 122.598 293 137.598C292.7 140.898 293.3 146.698 292.8 149.098C292.3 151.898 290.7 152.798 286.2 154.198C284.6 154.698 281.2 155.298 279.3 154.998C277.5 154.798 274.7 154.198 273.3 152.998C278.1 152.998 279.9 150.598 280.2 145.998C280.9 137.298 274.6 132.998 271.3 136.598C269.3 138.798 267.5 143.898 268.1 146.898C268.6 149.398 269.6 149.898 270.6 151.398ZM207.7 136.498C200.2 136.498 195.6 138.098 191.2 138.098C192.1 134.398 192.1 133.098 194 130.198C202.8 116.898 222.9 115.598 232.4 101.398C234 98.9984 235.5 97.1984 235.5 93.2984C237.9 94.8984 245.1 105.098 257 109.098C268.3 112.798 282.2 111.398 286.1 117.298C272.8 114.198 259.6 124.498 259.4 133.798L252.5 135.398C252 128.998 246.1 121.298 242.7 120.098L238.7 118.698C227.6 113.898 216.1 118.398 210.3 128.498C208.9 131.098 208.4 133.298 207.7 136.498ZM178.4 126.898C178.9 126.498 184 119.498 187.3 116.098L198.2 107.298C201.1 105.398 221.3 95.6984 218.4 89.5984C215.7 89.8984 217.8 89.3984 216.6 90.3984C215.7 91.1984 214.9 93.8984 207.5 98.2984C203.3 100.798 199.3 102.598 195.3 105.298C188.8 109.598 178.4 118.698 178.4 126.898ZM250.9 83.6985V85.2984C257.8 85.8984 262.2 88.0984 267 90.4984C269.4 91.6984 271.6 92.7985 273.9 94.1985C275.2 94.9985 276 95.2984 277.3 96.0984C278.7 96.9984 279.1 97.5984 280.7 97.9984C280.2 96.0984 278.7 95.0985 277 93.6985L276.4 93.1985C269.9 87.7985 260 81.5985 250.9 83.6985ZM175.7 108.798C176.1 107.098 176 107.798 177.1 106.398C180.5 102.198 192.8 91.6985 196.1 89.1985C197.5 88.0985 198.3 87.4984 199.9 86.5984C203.9 84.2984 202.8 85.0985 202.9 83.1985C201.4 82.7985 202 82.6985 200.8 82.6985C198.1 82.6985 191 87.7984 188.7 89.7984C187.4 90.8984 186.7 91.7984 185.4 92.8984C185.3 92.9984 185.2 93.0984 185.1 93.0984L184.5 93.5984C184 93.9984 184 93.9984 183.6 94.2984L180 98.0984C179.9 98.1984 179.8 98.2984 179.8 98.3984C178.3 99.9984 172 106.698 175.7 108.798ZM178.9 83.1985C180.1 80.8985 181.3 79.6985 183.5 78.1985C185.7 76.6985 191.5 72.5984 192.8 77.3984C191.5 77.9984 190.3 77.9984 189 78.3984C184.3 79.6984 182.6 82.8985 178.9 83.1985ZM242.9 70.3984C246.3 70.3984 249.4 69.1984 252.3 69.4984C255.6 69.8984 259.2 69.8984 262.2 70.2984C273.8 71.8984 283.7 75.0984 291.9 83.2984L302.2 93.7984C302.7 91.3984 301.9 89.5984 300.6 87.3984C292.7 74.7984 275.3 67.6985 259 67.6985C255 67.6985 245.2 67.1984 242.9 70.3984ZM247.7 52.7984C258.6 52.7984 284.2 55.9984 285 65.5984C278.5 61.2984 277.6 61.0984 268.8 58.8984C253.8 55.1984 231.7 53.9984 218.8 63.9984C217.9 64.6984 216 66.5985 216 64.6985C216 61.9985 226.2 56.9984 229.1 56.0984C234.3 54.2984 240.9 52.7984 247.7 52.7984ZM205.6 20.1984C207.5 19.2984 212.2 19.1984 215.2 19.0984C218.4 18.9984 221.5 18.1984 224.8 17.9984C228.3 17.7984 230.7 17.1984 234.4 16.8984C237.3 16.5984 240.5 16.0984 243.8 15.6984C256.2 13.9984 268.9 12.3984 280.4 10.1984C292.3 7.89844 303.5 5.39844 315.8 3.39844C327.5 1.49844 341.9 0.398438 355 0.398438C380.3 0.398438 407.8 10.3984 426.2 23.0984C434.4 28.6984 438.9 34.0984 445.7 39.8984L450.9 45.3984C458.8 53.5984 465.5 62.4984 470.6 72.5984C483.3 97.8984 488.1 126.098 491.7 154.498C493 164.398 492.5 173.898 493.3 181.198C494.1 187.898 493.2 192.298 493.2 198.898C493.3 216.398 489.2 249.298 485.7 266.098C485.2 268.698 484.5 270.998 483.8 273.798L480.5 289.198C479.3 295.298 477 300.998 474.4 306.598C473.9 307.598 473.6 308.498 473.1 309.498C467.2 321.898 456.7 338.998 447.4 349.398C444.1 353.098 440.7 355.098 439.3 359.998C433.2 381.198 441.2 406.398 421.4 392.698C418.8 390.898 416.9 389.398 414.3 387.598C403.4 380.398 406.8 378.098 394.5 378.098L365.2 380.298C362.3 380.898 365.4 381.698 360.9 381.898C359.6 381.898 357.9 381.898 356.6 381.798C350.9 381.798 339.5 382.898 334.5 383.698C324.8 385.298 316.3 387.298 307.9 390.098L283.3 397.998C274.7 400.798 267 403.298 258.7 406.498C250.6 409.598 243.1 412.598 234.9 415.298C222.2 419.498 209.5 423.398 196.3 425.698C174.8 429.498 173.2 426.698 153.4 425.498C139.5 424.698 128 422.198 115.1 416.898C113.7 416.298 112.7 415.698 111.1 415.098C97.4004 409.398 85.2004 402.698 73.5004 393.498C63.5004 385.698 54.9004 376.998 47.3004 366.898C40.5004 357.798 33.7004 348.398 28.5004 338.198C27.0004 335.298 25.8004 333.298 24.4004 330.498C23.1004 327.898 21.9004 325.498 20.5004 322.698C6.6004 295.098 0.600391 257.198 0.400391 225.398L0.900391 207.798C1.00039 205.398 1.4004 205.198 1.5004 202.498C1.7004 181.898 5.8004 160.998 11.3004 141.898C13.1004 135.498 14.8004 129.898 16.9004 124.098C18.0004 121.198 18.9004 118.198 20.0004 115.498C26.0004 100.698 33.5004 86.2984 43.4004 73.7984C45.9004 70.5984 48.6004 67.0984 51.8004 64.5984C54.4004 62.5984 55.5004 60.9984 58.0004 59.0984L79.0004 44.8984C86.6004 40.3984 94.9004 36.8984 103.4 34.0984C106.4 33.0984 109 32.0984 112.2 31.1984C116.8 29.7984 182.8 13.9984 182.8 25.4984C182.8 29.2984 181.1 28.3984 178.2 27.3984C172.9 25.6984 160.9 28.7984 156.1 29.5984C126.5 34.4984 96.5004 42.7984 72.2004 60.3984C69.8004 62.1984 67.7004 63.4984 65.4004 65.2984L59.5004 70.5984C51.7004 78.4984 45.5004 87.1984 39.8004 96.7984C38.2004 99.3984 37.2004 101.798 35.8004 104.598C34.4004 107.298 33.4004 109.198 32.2004 112.198C27.8004 123.398 23.8004 134.598 20.5004 146.298C11.6004 177.498 6.70039 228.298 13.7004 263.998C16.3004 277.598 18.4004 290.198 23.0004 302.698L31.8004 322.698C36.1004 331.098 40.5004 339.298 45.7004 347.198C50.8004 354.798 56.1004 362.398 62.0004 369.298C64.3004 371.998 68.9004 376.498 71.7004 378.798C78.7004 384.698 85.6004 390.598 93.5004 395.398C95.6004 396.698 97.6004 397.798 99.7004 398.798C101.9 399.898 103.9 400.698 106.3 401.798L119.6 407.698C124.2 409.698 128.7 411.498 133.9 412.698C133 410.898 132.1 405.398 131.6 402.698C130.8 398.198 129.7 384.998 128.3 381.398C119.9 359.298 115.9 310.798 124.6 288.798C127.9 280.498 132.9 276.198 140.5 272.198C153.2 265.498 166.5 260.298 179.5 254.198C181.4 253.298 183.3 252.598 185 251.698C181.3 244.798 174.5 222.198 185.8 217.298C188.3 216.198 195.8 213.898 198.9 213.798C198.9 206.798 198.1 198.998 196.6 192.598C196.1 190.598 195.1 187.598 194.2 185.398C193.3 183.198 191.8 180.598 191.4 178.598C190.4 179.098 186.5 180.198 185 180.198C181.8 180.198 183.1 179.798 181.1 179.298C173.8 177.598 172.9 178.798 165 173.598C153.1 165.698 151.6 147.498 165.3 140.198C164.6 137.598 162 136.298 160.5 134.298C150.4 120.998 149.5 104.498 155.9 89.1985C156.9 86.8985 158.1 84.2984 159.4 82.5984C163.5 76.7984 168.5 71.0985 174.9 67.6985C190.2 59.4985 190.5 64.4984 198.9 64.4984C200.1 49.8984 241.3 37.9984 265.3 43.8984L276.9 48.2984C283.9 51.7984 290 56.0984 296.2 60.9984C297.9 62.2984 298.8 63.3984 300.4 64.7984C304.8 68.3984 308.1 73.1984 311.2 77.9984C315.1 84.0984 317.7 93.6984 317.7 103.498C317.7 112.798 311.7 127.298 303.3 131.798C304.9 138.798 303.2 145.198 299.2 150.598C296.3 154.498 300.5 170.098 290.6 189.998C287.6 195.998 282.2 204.598 277.9 209.298C270.7 217.298 262.9 223.698 251.1 220.898C251.1 224.098 251.1 225.098 252.2 227.298C260.3 225.398 270.9 229.198 275.7 232.598C282 237.098 282.1 245.998 282.1 253.398L295.9 250.598C297.4 250.298 297 250.798 299 251.398C300.3 251.798 299.3 251.598 300.8 251.698C313 252.698 329.6 259.398 329.6 273.598C326.6 273.298 324.6 269.798 322.5 267.898C315.5 261.398 306.7 257.998 296.5 257.098C289.1 268.098 271.1 273.598 257.8 275.498C248.6 276.798 240.7 276.798 231.4 276.298C224 275.998 215.6 273.998 208.8 271.698C204.2 270.198 199.7 268.298 196 265.898C192.9 263.898 188.1 260.198 187.2 256.598C174.8 263.198 147.2 275.698 138.6 282.198C124.7 292.698 128.3 333.398 130 349.498L131.6 363.898C132.3 367.598 132.9 366.698 133.4 371.198C134.8 385.098 137.1 400.598 140.2 413.998L163.5 416.798C167.6 417.398 183.5 418.698 186.6 417.198C187.1 416.698 186.2 415.798 185.7 414.898C185.2 413.798 184.8 412.798 184.4 411.898C179.8 399.398 177.3 376.298 175.4 363.298C174.7 358.398 173.9 353.198 173.3 348.798L168.8 320.298C168.4 318.198 167.9 315.398 167.3 313.198C166.6 310.498 166.2 309.798 166.2 306.298C167.4 305.998 167.4 305.798 168.9 305.798C172.9 305.798 179.8 348.898 181.2 355.898L185.7 382.298C187.2 391.098 189.1 400.598 189.1 409.798L197.8 399.298C198.9 398.098 199.9 397.298 201 396.098C206.7 388.998 211.5 381.098 217.3 373.998L233.7 355.198C234.9 354.098 233 355.798 234.3 354.698C234.4 354.598 234.5 354.498 234.6 354.498C234.8 354.298 235.1 354.098 235.5 353.798L242.4 347.898C245.7 345.398 250 344.298 254 343.498C256.3 342.998 255 343.698 256.3 342.598L266.1 330.498C272.1 323.398 286.3 311.298 295 311.298C296.4 311.298 295.5 311.698 297.7 311.798C298.7 309.798 299.2 309.498 300.6 307.798C306.5 300.298 317.2 289.198 325.1 285.398C327.7 284.098 327.4 284.398 328.7 281.998C329.5 280.498 330.1 279.598 331 277.898C332.7 274.798 334.2 272.598 335.8 269.398C337.3 266.298 339 263.898 340.6 260.898C341.5 259.298 342.3 258.098 343.2 256.498C344.2 254.798 344.8 254.098 345.8 252.698C349.7 253.098 345 254.098 349.6 253.298C351.2 252.998 351.8 252.798 353.6 252.398C356.5 251.898 359.1 251.398 361.9 251.098C367.7 250.298 372.7 249.598 378.8 248.798C379.5 248.698 381.7 248.298 382.9 248.098C391 246.898 405.9 245.198 413.6 245.198C415.8 245.198 417.3 245.698 418.9 246.798V249.998C416.8 250.498 416.8 250.398 415.9 252.298L409.2 266.398C408.7 267.498 408.2 268.498 407.7 269.698C406.6 271.998 405.5 273.998 404.3 276.498C401.9 281.298 399.8 285.498 397.4 290.398C396.1 292.898 395.3 294.598 394.1 297.198L375.3 334.898C370.8 343.498 368.2 353.798 359.2 354.498C359.7 360.298 361.9 366.598 361.9 372.598C366.6 372.598 377.8 373.198 382.1 372.598C384.1 372.298 385.8 371.898 387.6 371.598C408.3 368.598 404.7 370.498 420.9 381.298C423.1 382.798 424.9 383.998 427 385.398C427 383.898 427.4 380.098 427.7 378.098C428.6 371.298 429.3 363.698 431.1 357.498C432.6 352.298 434 350.998 437.3 347.698C444 340.998 453.7 328.298 457.6 319.998L465.3 303.698C468.3 296.098 471.2 288.398 473.5 280.398C477.3 266.798 477.2 260.598 479.3 246.698C481.6 231.198 486.1 195.498 483.8 178.398L482.6 160.398C480.1 134.198 474.2 95.4984 459.2 72.2984C458.4 71.0984 458.1 70.3985 457.5 69.1985C454.7 64.2985 450.8 59.8984 447.1 55.5984C443.1 50.7984 436.9 44.6984 432.2 40.6984L424.3 34.1984C419.4 30.8984 414.6 27.3984 409.2 24.7984L399.3 20.2984C394.8 18.2984 390.3 16.7984 385.2 15.1984C363.2 7.79844 329.9 9.69845 306.7 13.5984C303.9 14.0984 301.2 14.4984 298.5 14.9984L256.2 20.6984C242.8 22.3984 224.9 23.4984 211 23.4984C206.3 22.8984 205.7 22.3984 205.6 20.1984ZM548 515.198C554.5 518.698 563.5 519.998 571.8 517.698C575 516.798 575.2 516.198 577.3 514.698C581.1 520.398 598.3 525.998 605.2 526.198C608 526.298 605.6 524.398 612.3 529.398C614.4 530.998 627.3 539.098 628 540.898C619.9 540.898 611.8 540.898 604.5 540.398L588.7 537.998C586 537.098 587.3 537.198 587.1 536.998C585.7 535.798 586.8 535.998 585.3 535.998C582.6 535.998 579.7 541.498 605.9 545.798C610.8 546.598 622.7 546.398 626.9 545.498C635 543.798 630.3 541.498 644.3 551.598C648.2 554.398 651.6 557.198 655.7 559.398C658 560.598 659.3 561.698 661.7 562.998L680.7 572.798C678.1 574.598 677.7 573.198 680 579.298C685.5 593.498 692.7 590.998 678.1 601.098C676.5 602.198 676.3 602.598 673.7 602.598L568.1 605.198C551.9 605.998 534.7 608.898 518 608.898C516.8 608.898 500.4 605.198 500.4 602.998L502.4 591.598C503.1 587.598 503.6 584.098 504.2 580.098C506.2 568.398 506.8 559.498 506.8 547.498C506.8 544.498 506.3 544.298 506.3 541.598C512.8 544.698 534.1 542.998 541.2 539.698C543.4 538.698 545.2 538.098 545.8 535.798C539.3 535.798 512.2 538.198 505.2 535.798C503.5 535.198 490.7 524.798 487.6 522.498C486.2 521.498 485 521.098 484.5 519.198L518.9 519.998C523.6 520.698 539.1 520.698 544.6 519.698C547 519.398 549.1 517.798 548 515.198ZM454.1 521.598C451.1 521.598 446.7 520.298 444.9 518.998C440.6 515.798 441.8 513.398 441.8 509.798L437.5 509.298C437.5 518.998 438.5 522.798 438.6 528.998C438.8 555.098 448 558.698 450.5 563.498L452.4 565.898C458.1 568.798 478.1 567.098 484 566.498C488.8 565.998 493.5 565.298 498.3 565.298C498.6 561.598 499.4 559.098 499.4 554.598C499.4 545.998 500.7 540.998 495.9 536.698L484.6 526.698C482.5 524.798 480.7 523.898 479.1 521.498C476.8 522.098 478.2 522.598 476.4 522.598C474.3 522.598 471 520.498 470.8 520.398C470 520.098 471.1 520.098 469 520.498C461.7 521.798 461.5 521.598 454.1 521.598ZM440.2 474.098C442.6 473.198 439.9 474.198 441.5 473.298C442.3 472.798 441.7 472.898 442.9 472.498C443.1 475.298 442.4 473.498 444 474.098C446 472.298 451 471.998 454.3 471.598C456.8 471.298 477.1 469.198 477.1 474.098C477.1 478.598 471.6 478.798 465.5 480.098C461.3 480.998 456 482.298 452 483.698C446 485.898 442.4 489.798 449.9 488.598C457.9 487.298 467.2 484.998 475.2 487.098C477.2 487.598 478.1 488.098 479.7 488.498C479.7 492.498 480.4 492.498 473.1 493.698C467.5 494.598 454.6 497.898 451 500.898C449.5 502.098 448.7 502.398 448.2 504.498C450.9 508.498 452.2 505.598 456.2 505.498C462.9 505.398 476.5 502.598 476.5 506.598C476.5 509.698 463.9 512.098 460.5 512.998L451.7 515.398C448.4 515.998 445.1 514.498 445.1 510.298C445.1 508.398 445.7 508.398 446.2 506.598C444.5 505.498 444.1 505.198 442 504.398C432.8 500.798 442.5 496.898 442.5 492.698C442.5 490.298 439.3 489.798 437.9 488.798C436.7 487.898 437.1 487.798 436.5 486.898L436.1 486.298C435.1 485.398 434.3 485.898 432.9 485.198C431.6 479.498 436.1 481.698 436.1 475.598C436.1 469.298 426.2 469.098 432.8 461.098C434.9 458.498 436.4 460.098 436.6 456.898C443.4 456.898 451.1 454.598 461.5 456.498C463.6 456.898 465.5 457.998 467.5 458.498C467.5 465.898 462.8 461.598 448.7 466.398C447.2 466.898 446.1 467.198 444.6 467.698C441.4 468.898 440.2 469.798 440.2 474.098ZM520.2 451.698C522.3 452.798 523.5 453.898 525.7 455.298C527.9 456.598 529.3 457.298 531.6 458.498C533.1 459.298 532.7 459.198 534.4 459.998C537.3 461.298 542.7 463.298 543.7 464.598C540.3 465.498 532.7 471.898 530.4 473.098L522.7 457.298C522.2 456.198 522 455.798 521.5 454.798C520.8 453.398 520.7 452.798 520.2 451.698ZM516 435.698C506.3 444.898 540.9 457.398 546 460.098C550.7 462.498 548.3 461.298 551.7 461.298C554.2 461.298 556.7 462.498 554.1 463.898C552.9 464.498 553.9 463.898 553 463.898C551.2 463.798 550.8 464.498 549.6 465.598C548.7 466.398 549.2 466.098 548.3 466.298C542.8 467.598 535.9 474.698 532 475.698C532.2 478.498 535 483.198 536.3 485.798C538.3 484.398 539.6 482.598 541.5 480.898C543.2 479.398 545 478.098 546.8 476.598C549 474.798 557.3 467.698 558.7 472.998L553.4 476.198C552.3 476.998 551.9 477.598 550.8 478.398L538.5 489.498C539.4 493.298 542.4 496.798 543.3 500.698C544.7 499.698 545.5 497.798 546.5 496.398C547.4 495.098 548.7 493.598 549.8 492.298C553 488.498 554.8 485.198 558.7 485.198C558.7 487.398 558 488.598 556.9 489.798C553.5 493.398 547.5 501.598 547.5 506.498C547.5 510.398 564.1 512.998 572 509.198C571.6 507.798 570 505.298 569.3 503.898C568.8 502.998 568.6 502.498 568.1 501.398C567.1 499.198 568.4 500.498 566.6 499.098C566.1 500.898 562.7 505.498 560.7 505.498C555.6 505.498 562.7 498.098 564.4 496.898L566.8 494.498C567.5 493.298 566 494.498 567.7 493.298C572.3 496.398 569.3 510.998 598.2 519.298C599.1 519.598 600.8 520.098 601.5 520.198C606 520.798 602.7 517.698 611.4 523.698C613.5 525.198 615.7 526.398 618 527.698C626.7 532.498 635.2 538.398 643.4 543.898C660.4 555.198 679.2 565.798 698.7 572.398C708.6 575.698 710.3 576.998 720.8 576.998C726.3 576.998 731.2 570.598 733.4 566.198C738.1 556.798 739.4 542.898 740 531.698L741.1 509.398C741.3 507.498 741.6 506.698 741.6 503.998C737.4 503.998 732.7 505.098 728.8 505.598C724.6 506.098 720.6 506.598 716.5 507.198C708.4 508.298 699.5 509.998 691.5 509.398V515.298L696.8 516.998C698.3 517.498 699.9 518.098 701.7 518.498V516.398C704.7 516.498 704.9 516.498 704.9 519.598C709.3 519.998 717.3 524.098 721.1 525.798C725.7 527.798 735.5 533.298 732.1 539.398C730 538.798 730.6 538.398 729 537.198C726.2 535.098 722.3 533.598 719.1 532.098C716.7 530.998 714.4 530.198 712 529.098C709.9 528.198 706.6 527.598 704.9 525.998C703.3 527.198 704 525.698 703.8 528.098H702.2C702.2 523.998 701.2 524.898 697.4 523.798C675.5 517.898 654 510.598 633.8 500.498C624.4 495.798 615 490.998 606.9 484.198C603.2 481.098 595.3 475.898 590.9 473.498C588.9 472.398 587.3 471.498 585.4 470.398C578.1 466.198 571 461.198 563.1 457.998C560.8 457.098 558.5 456.398 556.5 455.598L538.1 448.398C535.7 447.498 533.7 446.798 531.5 445.898C526.9 443.798 521.4 440.798 517.7 437.298L517.2 436.798C516.5 436.198 516.8 436.298 516 435.698ZM611.4 180.198C611.4 194.898 633 196.298 635.9 198.898C628.2 198.898 622.4 197.198 617.8 194.098C613.6 191.298 610.8 189.198 610.1 184.098C610 182.498 609.8 181.398 611.4 180.198ZM582.1 180.798C582.1 182.998 583.5 187.798 584 190.098C586.7 201.098 594.4 207.598 603.6 213.098C609.1 216.398 631 226.098 636.5 218.598C631.4 218.598 629.3 218.598 625.3 217.498C612.8 214.298 594.2 203.098 589.1 192.298C585.2 184.098 584.7 180.998 584.7 172.098C582.9 173.598 582.1 178.298 582.1 180.798ZM524.5 222.898C518.2 218.298 527.8 194.798 530.7 189.698L535.7 181.898C537.5 179.398 544.7 171.198 548 171.198C549.4 171.198 549.6 171.998 550.1 172.798C542.5 172.798 535 186.498 532.1 192.698C530 197.198 528.4 200.998 526.8 206.098C524.7 212.498 524.5 214.498 524.5 222.898ZM672.2 162.098C668.6 161.798 669.8 158.798 671.9 155.398C674.4 151.198 679.2 145.498 684.5 145.098C683.6 146.298 681.9 147.198 680.7 148.198C677.5 150.698 672.6 157.598 672.2 162.098ZM658.9 156.798C659.8 154.898 659.4 150.998 659.4 148.198C659.4 143.498 661.3 137.898 663.7 134.298C664.9 132.598 665.8 130.898 667.3 129.398C672.3 124.198 684 117.798 691.4 117.798V116.698C680.2 114.098 668.1 121.798 663 128.798C660.5 132.198 658.4 136.398 657.5 141.398C656.9 145.298 656.4 154.898 658.9 156.798ZM708.5 178.598C708.3 180.798 708.4 179.698 707.5 181.398C697.3 201.798 692.4 241.698 692.5 263.998C692.5 266.598 692.1 270.398 692.1 271.898C692.5 279.098 692.3 279.898 693.4 287.598C693.8 290.398 694.4 292.598 694.6 294.898C693.2 295.298 679.6 305.398 676.4 307.598C664.6 315.398 674.7 319.098 683.9 321.098C694.7 323.398 704 326.198 715.2 328.198C718 328.698 719.5 328.398 722.2 329.198L734.1 333.298C748.1 337.398 759.6 338.298 774.1 339.698L788.5 341.298C792.8 341.398 799.3 341.698 803.1 342.198C808.3 342.898 814 341.898 818.4 341.798C848.9 340.898 868.2 337.498 878.7 308.298C884.9 290.998 889 278.298 892.9 260.098C893.8 255.698 895 252.198 896 247.698L904.1 208.898C906 199.498 905.5 189.298 903.1 180.798C901.8 176.198 900.6 173.998 898.1 170.298C892 161.198 884.3 158.398 874.9 154.498C867.3 151.398 862.8 151.898 854 151.898C848.8 151.898 840.6 149.798 846.3 155.298C848.9 157.798 853 159.198 857.2 159.898C861.7 160.598 866.3 160.798 870.2 162.398C876.7 164.998 885.2 167.598 889.9 174.098C900.5 188.698 895.3 208.998 891.4 225.598C890.4 229.798 889.6 234.498 888.8 238.398C885 256.098 872.4 309.598 861.3 320.798C858.8 323.298 855.5 325.498 852.2 327.198C848.6 328.998 844 329.898 839.5 330.498C820 333.098 800.7 333.498 781 330.998C761.7 328.498 746.7 328.998 727.7 321.298C717.1 317.098 712.6 319.998 707.6 317.898C704.3 316.498 706.4 314.798 703 314.498C704.1 316.098 704.6 315.698 705.1 317.698C702.8 317.698 695.8 315.798 692.7 315.198C689.7 314.598 682.6 313.398 680.6 312.398C681 311.198 681.6 310.898 683 309.998L694.2 300.898L700.3 297.998C701.6 297.298 702.7 296.798 704.1 296.498C704.1 294.498 703.5 293.098 703.2 291.598C701.4 283.498 702.2 280.498 701.2 274.398L701.4 256.598C702.6 233.598 706.6 197.498 718.4 178.598C728 163.298 751.9 154.598 770.2 154.698C773.8 154.698 779.5 154.998 782.9 154.598C786 154.198 815.7 153.698 820.3 154.298C821.5 154.498 824.4 155.598 825.3 154.698C830.8 149.198 802.9 148.898 800.1 148.798C797.5 148.698 797.4 148.298 794.8 148.198C784 147.898 759.4 147.898 751.4 149.598C741.4 151.698 728.8 157.398 721.1 163.598C719.5 164.898 719.5 165.798 717.5 166.398C719.2 159.298 721.3 153.898 720 145.798C718.9 138.898 716.3 133.298 713.2 128.598C703.5 113.398 682.4 104.098 664.2 109.998C657.8 112.098 653.7 114.698 649.3 119.098C642.9 125.598 639.6 135.398 640.1 145.098C640.3 148.798 641.5 151.998 642.2 155.198C629.9 148.698 616.4 147.198 601.7 147.198C586.2 147.198 577.6 152.198 566 159.998C563.2 158.098 563.5 156.998 559.5 155.298C556.7 154.098 554.3 153.098 550.6 152.998C547.8 152.898 543.1 153.698 540.6 154.198C537.7 154.798 534.6 155.998 531.8 157.098C509.5 165.998 493.3 189.998 499 213.698C501.2 222.798 504.5 230.298 508.5 238.298C509.8 240.898 510.9 243.698 512.2 246.298L505.3 249.598C502.8 250.698 499.2 250.798 497.8 252.698C501.7 254.798 505.7 253.598 509.8 252.498C514.1 251.298 516.7 249.698 520.2 247.898C524.9 245.398 529.7 242.498 533.4 238.698C535 236.998 535.8 236.698 537.4 235.198C542.1 231.098 549.8 219.398 552.9 213.898C553.8 212.298 554.7 210.498 555.4 208.898C556.8 205.798 558.9 201.598 559.7 198.198C561.9 199.798 564.9 207.398 567.3 210.298C567.9 210.998 568.2 211.398 568.8 211.998C582.4 227.998 607.1 235.498 629 235.498C632.3 249.598 627.2 265.498 617.5 275.198C616.1 276.598 614.1 277.298 613.5 279.198C615.6 280.598 617.7 279.898 620 278.798C628.7 274.598 634.5 268.198 638.7 259.698C639.8 257.498 640.1 254.798 641.6 252.998C646.9 246.298 664.1 243.898 664.7 256.398C665 262.998 662.4 266.798 659.5 270.398C656.7 273.898 653 276.898 648.8 278.898L638.8 283.298C636.9 283.898 636.9 283.798 635.3 284.598C634.8 283.598 634.9 283.898 634.8 282.498C630.9 282.598 630.3 286.098 629.3 289.198C625.9 299.098 625.1 312.398 626.9 322.898C628.7 333.398 630.6 341.698 636.7 349.898C638.7 352.498 641.2 354.198 642.8 356.598C635.6 360.398 629.3 365.398 622.8 370.198C616.3 374.998 610 380.298 603.3 384.798C581.7 399.198 567 384.898 567 365.598C575 367.498 581.2 366.198 586.2 359.198C587.7 357.098 589.5 352.498 590.1 349.298C590.6 346.898 590.7 345.898 591 343.298C592.4 331.498 593.6 333.198 599.9 323.898C603.6 318.498 612.3 307.398 610.7 300.498C607.6 300.598 606.7 302.798 604.7 304.598C602.1 306.898 599.8 309.698 596.9 311.798C595.8 312.598 594.9 313.098 593.7 313.898C591.6 315.298 589.6 316.498 587.2 317.498C572.7 323.998 558 315.398 548.9 304.098L544.4 298.498C543.5 297.298 543.1 296.698 542.2 295.298C534.3 281.998 534.4 269.598 534.4 251.898C538 251.598 535.2 249.898 539.7 248.698C541.8 248.098 545.4 248.198 547.4 248.598C552.6 249.598 558.7 253.398 560 253.598C559.8 245.398 547.2 242.998 541.1 244.798C537.5 245.898 536.9 247.398 534.4 248.198C534.4 245.098 534.1 244.098 533.9 241.798H532L530.4 264.198C530.3 268.398 530.4 272.698 530.9 276.098C531.4 280.298 532 282.998 532.6 286.698C535.3 302.498 551.3 320.298 565.9 325.898C569.2 327.198 572.4 327.598 576 328.098C579.5 328.598 585.1 325.698 585.5 329.798C585.8 332.798 583.4 347.098 582.2 351.098C580.3 357.298 575.4 361.798 568.4 361.798C567.1 359.098 567.2 358.198 563.6 359.098C561.2 359.698 559.2 360.598 556.9 361.498C546.7 365.598 537.1 370.798 527.3 375.698C525.6 376.498 522.5 377.398 521.4 378.898C527 378.898 529.8 379.398 534.1 377.698C540.7 374.998 559 365.998 563 364.998C563 380.698 568.9 394.898 584.8 397.598C592.3 398.898 599.7 395.998 606 392.498C608.9 390.898 611.6 389.098 614.2 387.298L637.8 369.898C643.5 365.598 649.3 363.398 655.4 360.298C660.7 357.698 660.8 359.398 670.3 362.098C672.8 362.798 673 363.398 675.4 363.998L691.3 368.298C693.9 368.698 691.4 368.298 693.3 367.998C694.6 367.798 694.2 368.098 696.3 368.098C695.4 369.398 693.3 370.598 691.9 372.298C690.5 374.098 689.4 375.698 688.2 377.698C686.3 381.098 684 386.298 684 391.598H685.6C686.1 389.598 688.8 384.398 690 382.598C692.9 378.198 697 371.798 702.7 371.298C708.8 370.798 706.2 369.198 714.4 374.998C725.5 382.898 733.5 392.998 739.3 404.998C740.2 406.898 740.5 407.498 741.1 409.598C749.3 434.398 750.1 446.198 756 470.998C757.3 476.398 759.5 481.298 761.5 486.298C762.2 488.098 763.1 489.598 763.5 491.298C761 491.398 758.1 492.398 755.6 492.998C753.1 493.598 750 494.498 747 494.498V492.398L743.1 494.298C742.1 494.998 742.5 494.798 741.9 495.198C740.3 496.098 696.7 501.998 692.1 502.998C692.1 500.698 692.2 498.298 692.1 495.998C692 493.298 691.5 492.698 691.5 489.598C691.5 477.798 690.4 467.498 690.5 455.898C690.5 452.498 690.6 451.698 687.3 451.698C685.4 455.298 686.2 461.698 686.2 466.098C686.2 469.498 685.7 470.498 685.6 473.498C685.6 476.198 685.6 478.898 685.6 481.498C685.6 492.398 686.1 501.998 686.1 512.398C682.3 511.498 678 509.798 674 508.498C671.8 507.798 670.2 507.198 668.1 506.398C665.8 505.598 664 505.098 661.7 504.298C657.6 502.698 654 501.698 650 499.998C645.9 498.398 641.9 496.998 638 495.398C632 492.998 618.9 488.198 614.2 484.998C612.1 483.598 614.5 484.198 611.9 481.998C607.3 478.198 602.2 475.398 597.2 472.098C595.4 470.898 594 470.198 592.3 468.998L587.5 465.798C584.2 463.398 581.3 461.098 578 458.798C574.2 456.198 572.3 454.998 567.5 453.298C546.9 446.298 540 445.798 521.7 433.498C516.1 429.698 516.6 429.198 511.1 432.898C506.4 423.998 502.8 413.398 497.2 405.198C483.4 405.198 468.5 405.298 456.1 406.698C449.3 407.498 433.3 407.198 425.3 407.898C420.3 408.298 421.9 408.498 416.2 408.398C412.9 413.298 413.3 414.898 416 420.298L427.4 443.098C428.9 446.198 432.5 451.598 433.3 454.798C421.3 462.798 423.9 466.598 429.6 475.098C428.5 479.698 422.9 483.398 430.3 490.398C433.1 493.098 432.5 495.598 432.3 499.598C432.1 502.998 431.8 506.098 431.8 510.298L433.4 542.298C435.2 558.198 440.7 570.498 458.1 573.598C471.3 575.898 485.2 572.998 498 569.998C497.1 573.698 496.8 577.898 496.2 582.098C495.7 585.798 495 590.798 494.8 595.098C494.5 600.198 492.1 604.498 495.1 608.698L496.6 610.398C497.8 611.498 500.2 612.598 502.2 612.798C501 617.798 492.2 636.498 489.7 643.498L483.5 663.398C480.9 672.598 478.8 681.398 477.1 691.698L475 707.198C474.5 709.198 474.8 708.798 472.4 708.898L459 708.798C456.2 708.898 454.5 709.398 451 709.298C432.3 709.198 409.8 710.898 391.8 710.898C389 710.898 386.1 710.898 383.3 710.898C379.8 710.898 378.7 711.498 375.3 711.498C372.4 711.498 369.6 711.498 366.7 711.498C363.3 711.498 361.9 712.098 358.2 712.098L341.1 712.598C334.9 712.798 329.9 713.098 324 713.098C322.3 715.598 321.3 715.598 322.9 718.998C324.7 720.798 364.4 718.998 369.8 718.998C375.3 718.998 380.8 718.998 386.3 718.998C391.7 718.998 395.9 718.498 401.8 718.498C407.1 718.498 413.2 718.798 418.3 718.498C420.9 718.398 422.4 717.898 425.8 717.998L450.3 717.498C472.5 717.598 492.7 716.398 514.8 716.398C520.8 716.398 524.8 715.898 530.8 715.898C533.5 715.898 536.1 715.898 538.8 715.898C542.3 715.898 543.4 715.298 546.8 715.298C552.3 715.298 557.8 715.298 563.4 715.298C568.9 715.298 573.4 714.798 579.4 714.798C590.4 714.798 600.1 714.198 611.4 714.298L635.4 713.798C638.9 713.798 640.6 713.398 643.4 713.298C648.4 712.998 654.3 713.298 659.4 713.298C665.3 713.298 669.3 712.798 675.4 712.798C686.6 712.798 696.4 712.298 707.9 712.298L731.4 711.798C735 711.798 736.5 711.298 739.4 711.198C744.8 710.998 750.5 711.198 756 711.198C761.3 711.198 767.4 711.498 768.5 707.198C770.3 700.098 759.9 701.598 758.1 701.598C752.6 701.598 747.1 701.598 741.6 701.598C738.2 701.598 737.2 702.098 734.2 702.198C731.4 702.198 728.5 702.198 725.6 702.198C720.3 702.198 715.6 702.698 709.6 702.698C709.6 693.598 702.8 660.098 700.3 652.798C697.7 644.998 695.7 637.898 692.8 630.398L686.2 614.498C685.1 611.598 686.1 612.398 684.4 609.898L686.8 607.498C702.4 590.098 688.8 583.098 687.1 575.798L706.8 583.298C709.7 584.498 717.2 586.798 720.1 586.998C720.7 585.898 720.8 585.698 721.2 584.298C728 584.298 732.8 579.998 736 576.098C739.7 571.698 742.3 566.798 744.1 560.698C748.2 546.598 747.2 537.098 747.9 523.398C748 520.998 748.4 520.898 748.4 518.098L752.1 516.998C754.6 516.298 755.1 513.998 756.5 511.798C759 507.898 762.6 504.598 765.3 500.898C766 499.998 766.9 498.398 767.5 497.798C769 496.398 772 495.998 771.7 492.598C771.6 490.998 769.4 486.998 768.6 485.498C761.4 471.198 759 454.998 755.6 439.298C752.3 423.998 748.4 408.098 740.3 394.798C739.2 392.998 737.7 391.198 736.3 389.198L724.2 376.798C723.2 375.898 722.1 375.398 721.1 374.598C717.3 371.798 713.3 369.098 708.8 367.198C708 366.798 706.1 365.998 705.4 365.798C702.2 364.898 704.1 366.198 701.7 365.798L694.2 363.198C689.4 361.798 683.6 360.698 678.3 359.398C671.9 357.798 669.4 356.698 663.8 354.098C661.3 352.898 658.1 349.998 655.3 350.598C653.4 350.998 651.6 353.298 649.2 352.598C642.3 347.998 635.6 335.698 633.8 325.898C632.7 319.698 631.6 314.598 631.6 307.298C631.6 302.198 632.3 291.198 633.7 288.098C637.3 288.098 638.3 288.498 641.7 287.598C644.4 286.898 646.7 285.898 649.2 284.898C653.9 282.998 657.7 280.398 661.1 276.998C662.8 275.298 664.6 273.998 665.8 272.098C667 270.098 668.3 267.798 669.2 265.298C670.1 262.898 670 259.898 671.3 257.798C675.5 251.198 677.9 244.698 680.4 237.098C685.9 220.798 685.4 202.598 678.1 187.298C693 187.698 697.4 185.998 708.5 178.598Z" fill="black"/>
</svg>
