<svg width="832" height="878" viewBox="0 0 832 878" fill="none" xmlns="http://www.w3.org/2000/svg">
<path fill-rule="evenodd" clip-rule="evenodd" d="M198.7 817.099L206.6 864.899H182.4C184.1 861.599 185.6 857.299 187.1 853.799C192.5 840.299 192.9 832.999 196.3 823.099C197.1 820.599 198.2 819.199 198.7 817.099ZM403.6 829.199C403.6 823.699 404.4 816.599 405.1 811.799L411.3 765.499C411.6 763.299 411.3 762.799 412.5 761.499C412.5 778.599 416.4 810.699 418.2 827.799L419.3 841.399C419.8 852.199 421.4 856.899 423.5 866.099C415.6 866.099 410.7 866.199 403 865.599C407.5 856.299 403.6 837.699 403.6 829.199ZM761.9 794.999L761.6 796.099L761.9 794.999ZM776.1 785.599L775.8 786.699L776.1 785.599ZM314.3 802.899C314.3 799.799 314.4 797.699 314.7 795.399C315 792.899 314.6 790.199 314.9 787.699C315.4 782.899 315.3 777.399 315.3 771.899C316.8 772.999 316.2 773.299 317.2 775.199C319.2 779.199 322.9 782.399 327.9 782.399C327.9 785.299 325.3 793.599 324.2 795.599C322.6 798.799 318.1 801.999 314.3 802.899ZM329 739.899C329 737.299 329.1 733.099 331.6 733.099C334.8 733.099 334.3 735.099 334.2 738.899C334.1 748.899 335.2 754.199 335.2 760.399C337.9 758.399 339.4 749.599 339.4 744.599C339.4 737.699 337.3 727.899 336.8 721.999C331.3 723.299 326.4 726.699 316.3 726.699C316.3 735.799 315.8 744.299 315.8 753.999C316.9 753.199 317.3 752.799 319 752.399C320.6 755.699 321.8 773.399 328.5 773.899C329.2 770.899 330.6 770.299 330.6 765.999C330.6 757.799 329 751.099 329 739.899ZM200.3 716.199H191.9C192.1 708.799 194 698.399 194 689.399C204.2 689.399 208.7 689.399 218.9 687.999L235 684.699C235 690.599 238.6 705.299 238.7 708.299C236.4 709.399 232.7 710.199 229.9 710.999C221.7 713.399 209 716.199 200.3 716.199ZM149.3 685.799L179.2 688.999C181.8 688.999 188.7 688.399 188.7 691.099V716.299C173.5 716.299 150.4 707.999 145.1 707.899L147 696.599C147.7 692.799 148.5 689.299 149.3 685.799ZM330 684.699L340.5 680.999C340.5 683.999 341.4 687.999 341.6 690.999L342.2 701.999C342.2 708.899 338 711.899 331.1 713.499C331.1 708.999 331.4 703.099 331.1 698.799C330.7 694.199 330 689.999 330 684.699ZM316.4 687.899C318.4 687.399 318.8 686.899 321.1 686.799L322.7 709.399C322.9 711.799 323.7 713.999 324.2 716.299C322.6 717.099 318.5 718.699 316.3 718.899C316.3 713.899 315.8 708.199 316.5 703.399C317.3 698.499 316.9 692.099 316.4 687.899ZM140.9 706.199C136.3 705.099 117.4 698.699 111.6 696.099C110.3 695.499 111 695.599 109.4 695.199C110.8 689.299 111.2 682.199 112.6 676.299L135.5 683.299C137.6 683.799 142.2 684.499 143.6 685.199L140.9 706.199ZM311.1 687.899V671.599C310.1 672.399 306.2 678.499 300.3 683.399L292.8 689.599C291.7 690.299 291 690.799 290 691.499C277.7 700.599 249.9 713.199 234.9 717.299C213.9 723.099 209.9 723.599 188.7 723.599C171.8 723.599 152.1 715.899 143.8 715.099C140.6 714.799 139.4 713.899 135.2 712.499C127 709.999 119 707.099 111.1 703.999C105.4 701.699 100.3 698.299 94.7996 695.599C92.9996 694.699 91.1996 693.599 89.3996 693.199L88.2996 716.299C87.4996 726.199 86.1996 740.299 86.1996 749.999V785.699C87.9996 786.199 87.7996 785.999 88.2996 787.799C87.0996 789.399 88.5996 788.599 86.1996 788.899C86.1996 810.199 87.2996 830.799 87.2996 852.499C87.2996 856.799 86.1996 860.699 86.1996 864.599C94.8996 864.599 91.1996 864.399 98.8996 865.499L120.9 865.599C123.6 865.499 124.5 864.999 127.7 864.999H178.1C178.1 861.799 180.1 854.899 181.1 851.699C182.4 847.299 183.3 843.299 184.8 839.099C191.1 820.299 185.5 830.199 195.9 809.699C201.6 798.299 205.7 792.799 212.3 778.299C213.8 774.899 213.2 773.699 216.6 773.699C223.7 773.699 214.2 804.299 212.9 809.399L209.2 824.099C207.9 826.899 207.2 824.599 207.5 827.999C208.6 841.999 210 846.999 212.3 859.499C213.5 865.999 211.8 865.199 219.3 865.099H304.4C302.6 857.199 303.6 858.199 303.9 849.299C304 846.699 304.4 846.699 304.5 844.099C304.7 836.999 304.3 828.899 305.3 822.299L306.1 811.499C306.1 804.999 308.2 787.099 308.2 779.999C308.2 775.799 308.2 772.399 308.6 768.899L309.2 746.899C309.2 740.599 309.7 739.699 309.7 736.399C309.8 719.899 311.1 705.099 311.1 687.899ZM106.2 693.599L86.1996 683.599C86.1996 680.099 86.6996 675.699 87.2996 672.599C87.8996 669.699 89.5996 665.799 89.8996 663.099L98.4996 668.699C101.8 670.599 104.5 671.899 107.7 673.699C107.2 674.899 106.2 690.699 106.2 693.599ZM613.2 648.999C613.2 644.299 613 646.799 613.7 645.299C616.4 645.499 615.9 646.499 617 651.499C618.7 659.699 620.4 666.099 623.4 673.999L635.3 701.499L637.6 675.399C638.1 671.999 637.7 669.599 640.5 668.899C642.4 670.199 642.3 670.299 642.1 673.599L640.5 692.499C640 700.599 638.9 709.299 638 716.799C636 732.999 634.4 749.599 632.7 765.599C631.8 773.799 631.4 781.699 630.2 789.899L625.2 866.399C619 867.799 621.4 865.999 622.1 853.799C622.2 851.899 622 849.899 622.1 847.999C622.6 841.399 623.1 834.599 623.7 827.499L625.3 806.999C625.3 800.999 627.9 773.399 628.8 766.899C629.7 760.199 630.1 753.399 631 746.999L634.8 706.599L627.8 694.199C621.8 682.399 613.2 662.399 613.2 648.999ZM294.3 678.899C294.3 668.399 294.2 673.599 293.2 664.799C292.6 659.599 290.7 653.699 290.6 652.099C294.1 648.399 295.7 647.599 299.5 643.099L305.2 636.699C306.3 635.399 306.7 634.299 307.9 632.999C308.7 632.099 313.3 627.199 313.8 626.799C313.9 633.399 320.4 646.899 312.4 655.899C312.3 655.999 312 656.299 311.9 656.399L305.4 665.699C301.8 670.399 299.1 675.699 294.3 678.899ZM355.3 615.399L356.4 633.199C356.6 635.499 357.3 639.299 357.4 641.699C357.5 643.199 357.3 644.799 357.5 646.399C358.7 657.199 355.7 670.699 346.4 676.899C346.4 678.499 346.9 682.599 347.2 684.499C347.6 687.299 347.7 688.699 348.1 691.499C349.2 701.799 353.1 712.899 341.7 718.899C342.9 721.299 344.3 738.399 344.3 743.099C344.3 762.099 339.3 762.199 334.3 782.499C331 795.899 332.4 809.299 313.8 809.299C313.8 811.999 313.2 813.299 313.3 816.699L311.5 852.199C310.6 857.799 311.8 860.399 309.6 864.999C317 864.999 324.3 863.999 330.8 864.899L394.8 865.599C396.9 840.299 394.3 847.599 394.3 830.899C394.3 811.199 403.1 766.699 405.8 744.599L408.4 723.499C409.9 712.699 408.5 713.299 408.6 704.199C408.7 689.399 404.6 696.899 396.2 678.799C391.2 667.999 388.1 647.699 388.1 635.899C388.1 632.499 388.7 623.599 393.7 626.599C394.9 627.299 395.1 627.899 395.4 629.099L397 645.899C398.5 656.499 400.5 666.299 404 675.099C408.9 687.299 414.8 691.699 415.7 693.299C417.7 696.999 416.9 710.299 417.5 716.199C418 721.299 418.6 726.999 419 732.499C419.4 737.699 420.5 743.999 420.5 749.399C420.6 756.499 422.3 767.699 422.6 774.599C423.3 790.199 425.8 802.299 426.8 815.599C428.4 836.399 430.3 842.999 428.4 865.999C434.4 867.399 443.1 866.499 449.9 866.499C457.6 866.499 463.4 866.999 470.9 866.999L502.9 867.499C506.9 867.499 509.6 867.999 512.9 867.999L513.4 820.699C513.4 816.499 513.9 813.799 513.9 809.099V692.499C513.9 678.599 513.4 666.099 513.4 652.599C513.4 624.999 512.9 598.899 512.9 571.699C510.2 571.799 499.4 574.799 495.7 575.499C476.9 579.299 462.2 581.399 443.2 584.399C438 585.199 439.1 583.999 436.1 587.799C431.2 593.899 428.3 598.999 423 605.199C419.4 609.399 415.8 612.699 409.8 609.699C407.4 608.499 405.6 607.099 403.4 605.599C402.2 604.799 398.4 601.599 397.4 601.599C393.5 601.599 388.4 611.099 376.4 611.099C375 613.799 373.6 614.499 370.9 616.199C364.2 620.299 359.9 618.499 355.3 615.399ZM360 603.799C362.5 602.499 365.5 600.899 368.9 600.599C369 603.199 369.9 606.399 370 608.999C367.4 609.199 366.6 610.599 362.1 610.599C359.9 610.599 360.7 605.499 360 603.799ZM316.9 594.899C316.9 609.499 321.5 595.399 318.8 610.999C316.6 623.599 317.1 613.199 320.6 630.199C327.8 665.099 314 653.399 316.3 670.199C316.7 673.299 316.4 676.799 316.4 679.999C318 679.599 320.2 678.499 322 677.699C327.5 675.499 334.5 673.899 339 670.999C350.7 663.499 350.5 652.199 349.5 639.999L348.4 611.099C346.2 611.299 347.2 611.599 345.2 611.599C340 611.599 336.4 607.799 336.3 602.699C335.3 602.799 322.6 608.099 322.6 594.299C320.4 594.399 319.8 594.899 316.9 594.899ZM283.8 597.499C282.3 597.499 284 596.999 282.3 596.899L280.7 596.999C280.2 594.999 279.6 590.499 279.6 588.099C286.8 588.099 304.7 583.599 310.6 580.699C313.1 591.299 311.5 590.199 306.4 592.799C300.1 595.999 291.2 597.499 283.8 597.499ZM327.4 586.999C332.4 588.199 330 586.699 336.5 583.499C339 582.199 341.7 581.199 345.3 581.199C345.3 584.499 344.2 586.299 343.2 588.599C342.3 590.699 341.4 593.899 344.5 594.599C346.7 595.099 348.9 592.899 350.7 591.899C352.5 590.899 355.4 589.599 357.4 589.099C357.4 591.299 356.1 593.599 355.3 595.399C354.4 597.499 353.2 599.199 353.2 602.199C348.2 603.399 344.3 608.899 342.3 599.999C339.8 589.099 335.9 597.499 331.7 597.499C327.6 597.499 329.8 592.299 327.8 589.299C325.6 585.999 322.9 588.399 320.8 588.699C318.5 588.999 317 587.499 317 586.999C317 583.499 317.6 580.499 320 578.499C322.2 576.599 330.1 571.199 330.1 577.099C330 581.699 327.4 581.499 327.4 586.999ZM551.7 586.999C551.7 586.999 544.3 629.099 543.4 637.499L541.2 660.999C541.2 673.699 540 667.599 539.6 676.199C539.1 686.699 538 697.399 538 708.799C538 716.599 538.9 723.299 539 730.899C539.2 740.699 542.9 762.099 544.2 772.399C545.7 783.399 547.6 791.599 550 801.799L562.4 848.199C563.5 851.899 567.3 863.899 567.3 866.899L531 866.399C526.9 866.399 524.4 867.399 521 867.499L523.1 809.199C523.2 805.899 523 802.499 523.1 799.199C523.1 795.899 523.7 793.699 523.6 789.799V719.399C523.6 693.599 522.5 669.499 522.5 643.699L520.8 588.099C520.1 582.199 519.8 576.399 519.8 569.599C527.1 567.899 541 564.499 547.1 561.199C547.1 569.399 542.6 578.399 546.2 583.199C547.9 584.899 549.5 586.499 551.7 586.999ZM350 586.499C350.2 583.899 351.5 583.099 351 579.699C349.9 571.399 338.5 576.599 334.7 578.599C334.7 574.099 334.4 568.199 327 568.799C322.2 569.199 318.3 572.799 315.8 575.399C315.6 573.299 315.2 572.499 315.3 569.599L315.8 550.099C322.1 550.199 322.9 551.699 330.9 549.399C335.4 548.099 345.6 543.699 348 540.699C351.2 536.699 348.6 533.599 357.8 538.099C360 539.099 361.7 540.099 364.2 540.599C363.2 544.199 352.3 546.299 348.8 548.399C342.2 552.299 344.1 559.099 349.5 562.599C361.6 570.499 376.1 558.699 379.6 557.699C380.6 557.399 381.2 557.499 382.2 557.199C383.6 556.799 383.1 556.799 384.6 556.399C385.9 558.299 398.8 567.299 404 572.199C407 575.099 407 575.599 408.8 578.999C401.6 582.799 400.4 581.199 400.4 592.099L390.1 598.599C386.8 601.199 389.3 600.399 384.5 601.399C382.1 601.899 379.6 602.899 377.2 603.099C377.2 589.999 368.1 591.099 362 595.199C362.8 591.599 365.9 585.799 361.8 583.299C357.6 580.799 353.1 585.599 350 586.499ZM513.9 506.099L514.1 506.299C514.1 506.199 513.9 506.099 513.9 506.099ZM776.1 785.599C776.3 782.899 786.5 754.699 780.8 746.199C777.3 746.199 776.2 746.699 775.7 749.499C774.4 756.799 775 759.899 772.3 771.299C771.1 776.499 766 792.299 761.9 795.099C761.9 794.599 774.6 746.999 764 748.299C760.7 750.099 761.3 750.799 761.4 755.699C761.5 772.799 758.8 790.199 751.3 805.399C750.1 807.899 749.1 809.599 746.7 810.799C740.6 807.599 746.5 799.699 748.5 788.399L751.4 761.399C751.4 758.699 750.5 751.399 748.9 749.199C747.9 747.799 747.4 747.799 745.1 747.799C741.9 752.499 744.7 752.999 744.6 763.599C744.6 769.199 743 778.199 743 780.399C739.2 781.299 740.1 780.699 736.7 780.399C736 777.399 735.7 774.299 734.9 771.099C732.4 760.899 729.2 752.699 731.8 741.299C734.8 728.199 743.9 712.499 744 707.299C746.1 707.299 745.2 707.399 746.6 706.799C746.6 702.199 747.6 701.399 746.6 696.299C745.9 692.999 745.9 689.699 745.4 685.999L743 631.699C743 629.499 742.5 629.199 742.4 626.499L742.3 599.599C743.1 591.899 742.4 585.599 742.4 577.599L744 555.999C744.1 552.799 744.9 548.699 745.1 545.499L745.6 534.499C749.8 534.499 756.9 536.099 759.3 532.899C758 531.099 748.4 528.699 746.2 528.199L745.9 455.399C746.3 452.299 745.9 453.599 745.7 450.999L751.3 446.699C753.2 444.999 754.8 443.899 756.9 442.299L792.4 417.399C792.8 421.699 794 427.299 794 433.699V469.999C794 476.599 794.5 481.599 794.5 487.899C794.5 493.899 794.5 499.799 794.5 505.799C794.5 509.399 795.1 510.599 795 514.199C794.9 533.299 797.1 535.399 794.1 558.499L792.4 574.599C792 579.999 791 585.999 790.4 590.999C789 602.199 788.4 613.599 787.2 624.599C786.5 630.599 787.2 635.699 786.3 641.599L785.5 659.199C785.5 662.899 785 664.399 785 667.599L784.5 694.899H786.1C786.1 699.599 786.2 703.499 786.8 707.899C787.3 711.599 787.5 716.299 788 720.399C788.8 726.299 791.7 746.099 789.1 750.999C787.9 753.199 787.7 752.999 787.3 755.999C786.3 762.199 780 782.699 776.1 785.599ZM539.1 455.099C539.1 466.099 541.6 466.499 542.4 468.599C543.1 470.499 543.6 472.799 544.4 474.999C545.2 476.999 546.1 478.899 546.9 480.899C547.8 482.899 548.4 484.899 549.5 486.699L556.5 496.499C560.6 501.699 560 498.699 560 507.699C560 520.099 554.8 534.299 551.5 546.499C550.1 551.699 550.2 550.599 545.3 553.399C535.9 558.899 498 566.599 486.3 568.999C474 571.499 452.6 574.799 439.3 576.699C435.6 577.199 431.7 578.199 427.7 578.699C424.6 579.099 418.7 580.799 416.1 580.799C416.1 573.399 408 567.799 402.8 563.099C400.9 561.299 387 550.899 385.1 550.899C382.2 550.899 384.8 551.599 382.2 551.199C380 550.799 382.2 550.399 378.8 550.399C376.7 550.399 371.1 553.499 369.2 554.399C365 556.499 355.1 560.499 351.5 555.099C353.2 552.699 359.7 552.599 368.4 546.799L376.2 540.399C376.2 540.399 376.8 539.899 377 539.599C384.4 532.599 387.2 537.499 394.5 540.499C397.4 541.699 397.2 541.699 399.5 543.399C404.6 547.299 402.2 546.599 409.4 546.599C433.9 546.599 475 526.899 501.2 518.099L517.8 512.699C525.1 510.199 522 508.799 535.8 511.099C545.6 512.699 540.6 512.599 544.4 513.599C544.2 505.799 529.1 504.099 522.9 504.099C524.4 500.899 526.3 488.399 527.1 484.199L533.9 442.599C534.4 437.299 537.1 426.099 537.1 421.599C540.3 422.499 543.3 429.899 545.1 432.499C549 438.399 548.8 433.499 542.4 444.699C541.2 446.599 539.1 452.099 539.1 455.099ZM517.6 502.399C517.6 492.699 525.9 456.299 528.4 441.699C529.2 436.999 527.7 437.999 529.4 433.199L530 430.099C533.6 406.099 532 416.499 527.8 402.399C526.7 398.599 526.5 398.899 520.5 395.399C517.9 393.899 518.9 396.299 518.6 399.199L517.2 418.299C517.2 422.399 518.2 422.599 518.3 425.699L517.6 425.299C516.4 424.799 517.6 424.799 516.7 425.099L515.6 454.999C515.5 465.499 515.3 496.099 513.5 503.899C515.4 503.799 516.2 503.199 517.6 502.399ZM290.1 409.899C290.1 403.699 296 401.699 297.3 410.599L300.6 461.399C300.7 467.099 301.7 472.699 302.2 478.199L303.9 494.299C304.7 499.999 305.2 504.899 305.9 510.699C306.5 515.799 307.4 521.299 307.4 527.099C310.2 526.999 311.7 525.999 314.8 525.999C322 525.999 328.2 537.599 322.7 542.799C330.5 542.799 334.8 541.399 340.6 537.499C340.1 535.299 339.3 533.299 338.7 530.999C338.1 528.499 337.8 526.499 337.3 523.999C336.6 519.499 335.8 513.999 334.9 509.599L330.3 481.099C327.3 461.699 323.9 443.499 319.5 425.699C315.9 411.399 305.2 372.399 294.8 362.699C292.9 360.899 290.6 358.199 288.3 357.099C280.6 353.599 258.5 346.199 251 351.599L245 356.599C242.7 358.199 240.5 359.299 238.2 360.799C235.8 362.399 233.8 363.499 231 364.699C219 369.599 207.9 372.899 194.6 371.499C169.8 368.899 165.8 367.699 141.8 358.099C136.9 356.199 131.1 353.699 130.6 347.699C127.2 347.999 114.6 355.699 110.6 357.699L97.5996 364.599C95.3996 365.799 93.2996 366.999 91.1996 368.099C77.8996 375.499 65.7996 381.899 62.2996 399.099C61.3996 403.699 59.8996 415.899 59.6996 421.699C59.6996 423.299 59.7996 424.599 59.5996 426.299C58.7996 432.099 59.1996 439.699 59.1996 445.899L61.6996 479.699C62.1996 483.299 61.9996 486.799 62.5996 490.399C64.6996 504.499 66.3996 518.099 70.0996 530.699C74.0996 544.699 83.0996 563.999 92.1996 574.799C92.9996 575.799 92.7996 575.699 93.5996 576.599L101 583.899C102.7 585.799 105.2 587.999 105.5 590.999C102.4 590.699 101.2 587.599 98.0996 586.799C106.6 604.499 87.5996 629.699 87.5996 648.299C87.5996 654.399 102.6 662.299 107.3 664.899C112.1 667.499 117 669.799 122.2 671.499C143.3 678.499 175.1 681.899 198.5 681.899C201.7 681.899 202.8 681.499 205.3 681.399C221.7 680.499 231.4 678.099 247.1 672.799C250.8 671.599 254.3 670.399 257.9 669.399C259.8 668.899 261.9 668.099 263.7 667.799C266.8 667.299 266.9 666.899 268.9 668.299C267.8 673.199 260.5 675.099 256.5 676.899C253.3 678.299 244.5 682.199 241.1 682.499C241.1 687.099 242.2 689.599 242.2 694.599C242.2 699.199 242.7 702.199 242.7 707.199C244.7 706.199 247.7 705.399 250 704.499L282.3 688.499C284.4 687.199 292.1 680.899 293.7 680.499V679.399C290.9 679.199 290.8 677.499 290.1 675.199L285.9 657.399C283.8 658.499 283.9 658.899 281.9 660.299C279.2 662.199 274 663.399 276.9 658.499L282.1 651.599C282.2 651.499 282.3 651.399 282.3 651.299L291.1 641.699C294.8 637.199 298.9 632.999 302.3 628.199C304.1 625.599 305.6 623.599 307.3 621.099C310.4 616.299 310.5 607.999 310.5 600.199C296.3 607.699 281 603.699 278.3 604.699C277.2 605.099 276.3 606.299 275.3 606.999C269.3 611.399 261 615.699 253.9 618.199C240.2 622.999 216.7 624.099 200.5 621.899C195.6 621.199 190.5 621.499 185.4 621.199C180.9 620.999 175.4 619.999 171.2 619.699C166.2 619.299 165.8 619.299 161.4 617.899C149.8 614.199 143.8 614.399 128 608.199C126.8 607.699 126.1 607.499 125 606.999C122.2 605.699 114.9 601.599 114.9 598.199C114.9 591.399 123.8 598.199 126.6 599.599C129.9 601.299 133.6 602.199 137.1 603.299C144.3 605.399 152.3 607.999 159.6 609.199L178.1 612.299C180.6 612.999 194.5 613.999 197.4 613.999L219 614.499C258 614.499 267.4 601.999 276.8 599.799C275.9 596.599 269.4 589.299 269.4 574.599C269.4 570.099 269.9 551.999 276.2 551.999C279.1 551.999 278 555.599 277.8 557.799C277.2 563.899 277 571.699 277.7 577.899C278 581.099 277.1 581.199 279.5 581.099C283.3 580.899 295.9 578.299 300.4 577.699C303.4 577.299 307.2 576.199 310.4 576.099C309.7 574.699 309.9 576.499 309.9 574.499V566.999C306.5 567.099 303.7 568.099 300.6 568.699C297.2 569.399 292.8 570.099 288.9 570.099C285.9 570.099 284.4 564.499 290.1 562.899C296.9 560.999 303.3 561.099 310.4 561.099L310.9 552.699C308.5 552.799 305.8 553.799 303.5 554.199C298.7 555.199 283.6 559.999 283.6 552.699C283.6 548.899 292.2 548.799 296.1 548.399C300.4 547.899 306.6 547.399 311.4 547.399C311.4 538.899 315.6 538.099 316.7 542.699H320.9C319.7 540.899 319.6 539.799 318.5 537.699C317.9 536.399 316.6 534.299 315.1 534.299C310.6 534.299 295.5 540.099 282 540.099L270.4 539.599C269.1 541.499 269 543.199 266.7 543.799C267.1 542.299 267.1 542.399 267.8 541.199L269.3 538.999C267.4 536.199 264.9 534.899 262.2 532.999C252.9 526.699 241.5 527.699 230.2 529.299C211.3 531.899 178.5 537.399 159.5 532.699C155.1 531.599 156.9 531.499 154.3 532.699L148.2 533.999C146.3 534.799 144.8 535.299 143 536.199C141.9 536.699 141.4 536.999 140.5 537.399C139.1 537.999 139.4 537.999 138.1 538.699C136.2 539.799 135.3 540.299 133.5 541.499C131.8 542.599 130.8 543.599 128.5 543.799C128.7 541.999 129.2 541.599 130.2 540.299C135.7 533.199 141.8 528.699 151.1 526.499C149.1 523.499 148.5 524.799 143.4 516.299C132.6 498.199 127.7 469.899 122.8 449.199C121.6 444.299 120.8 439.199 119.6 434.499C118.9 431.399 114.4 415.999 120.5 415.199C124.4 414.699 125.7 424.899 126.4 427.699C127.5 432.099 128.8 437.299 129.9 441.999C132.3 451.599 134.5 460.799 137.1 470.599C139.6 480.199 142.2 489.199 145.2 498.199C147.4 504.699 153.6 519.199 154.1 525.099C178.1 527.099 195.5 525.699 219.5 522.199C224 521.499 227.6 521.299 232.1 520.599C240.1 519.499 250.8 518.699 257.7 520.799C263.9 522.699 270.9 527.199 273.9 532.999C277.9 532.999 299.6 529.799 301.7 528.799C301.3 527.099 299.9 525.299 299.1 522.999C296.7 515.299 293.1 483.199 292.7 474.199C292.3 464.399 291.1 454.899 291.1 444.199C291.1 440.799 290.6 439.699 290.6 436.899L290.1 409.899ZM714.1 333.799C712.6 333.799 701.1 334.299 700.2 334.599C698.3 335.199 699.2 334.799 698.1 336.199C697.4 337.099 697.2 337.399 696.6 338.399C695.7 340.099 695.3 341.699 694.3 343.499C688.7 354.399 681.5 364.899 673 373.699C672.2 374.599 672.1 374.699 671.3 375.699L667.4 379.599C663.1 383.599 653.3 391.299 647.8 392.499L635.2 394.599C632.7 394.899 624.9 393.399 622.7 392.799C615.5 390.999 615.1 392.399 607.3 387.199C601.2 383.099 597.5 377.799 595.8 369.199C595.3 366.499 594.2 358.799 594.6 355.999C594.8 354.199 594.8 351.399 595.2 349.199C595.6 346.899 596.1 345.599 596.6 343.699C592.5 344.599 589.1 345.699 586 347.799L577.4 353.399C573.8 355.899 570.3 358.099 567.2 361.099C565.4 362.799 566.9 361.899 565.7 363.299C564.1 365.199 565.4 363.599 563.3 364.599C559.8 366.299 556.7 369.999 554.1 372.699L550.9 375.299C550.8 375.399 550.7 375.499 550.6 375.499C550.5 375.599 550.4 375.699 550.3 375.699C550.2 375.799 550.1 375.899 550 375.899C548.5 377.199 548 377.799 546.4 379.099C544.8 380.299 544 381.199 542.4 382.499C540.5 384.099 532 391.699 532 393.099C532 395.999 532.4 394.799 533.1 397.199C533.7 399.299 533.1 398.099 533.4 399.699C534.1 403.599 538.4 410.499 540.4 414.099C541.7 416.399 542.9 419.199 544.7 420.799C545.6 421.599 545.5 421.399 546.2 422.499C546.8 423.499 550.1 431.299 550.4 432.499C554.6 429.699 566.9 409.899 568.5 402.799C569.3 399.399 568.6 400.299 571.4 398.799C574.9 400.599 575.1 402.399 573.7 406.799C572.6 410.099 571.3 412.099 569.7 414.899L560.3 429.199C558.4 431.799 555.8 434.599 554.4 437.499L552.8 440.099C548.5 445.099 544.6 454.499 547.1 461.499C548.2 464.599 548.5 467.599 550.3 470.399C552 472.899 552.9 475.599 554.5 478.299L565.2 494.399C570.1 500.899 583.9 498.499 590.6 496.799C593.9 495.999 596.1 493.999 599.3 493.899C599.5 496.599 599.7 494.599 600.4 497.099C596.2 503.299 583.3 505.799 576.8 505.999C573.8 506.099 570.1 506.799 567.3 506.999C567.3 523.399 563.9 534.099 559.8 548.299L556.3 560.599C556.3 563.099 557.3 561.899 556.4 564.899C556 566.299 555.6 566.699 555 568.299C553.5 572.499 552.7 576.399 553.6 580.599L558.6 581.899C561.1 583.199 556.8 581.399 559.1 582.299C560.1 582.699 559.3 582.499 560.5 582.399C563.9 582.299 566.4 581.699 569.3 581.699C573.1 581.599 575 582.199 578.2 582.299H625.5C650.7 582.299 674.6 583.399 700.1 583.399C705.3 583.399 710.5 582.399 715.1 583.099C719.3 583.799 718.4 583.099 721.6 582.199C724.2 581.499 722.6 581.999 724.1 582.299C724.2 582.299 724.3 582.399 724.4 582.399C726.3 582.799 729.5 582.299 731.6 582.299C731.6 579.099 732.4 579.199 732.6 576.499C733.6 563.899 736.3 543.299 736.3 533.399C736.3 530.899 735.8 531.799 735.8 529.699C735.8 526.499 736.1 528.599 736.7 526.399C737.6 522.899 736.8 498.999 736.9 492.899C736.9 489.599 737.5 488.499 737.5 484.999C737.5 479.199 736.6 474.399 736.4 469.199C735.9 453.499 733.5 437.799 732.7 422.499C732.6 420.099 728.6 403.599 733.8 403.599C737 403.599 737 407.099 737.5 409.899C738 412.899 738.9 414.899 739.7 417.699C740.9 421.899 742 429.399 742.3 434.599C742.4 437.099 742.7 437.099 742.8 439.399C742.9 441.399 742.3 442.699 743.7 442.699C744.5 442.699 749.3 437.399 750.7 436.199C750.8 436.099 750.9 435.999 751 435.999L753.8 433.499C762.8 426.199 771.9 419.799 781.5 412.899C786.6 409.199 799.8 399.199 805.4 397.899V395.799C802.6 394.999 788.6 379.799 784.8 375.499C784.3 374.899 784.1 374.699 783.5 374.199C782.6 373.299 782 372.799 781.1 371.799L767 356.999C766 356.099 765.2 355.399 764.4 354.399L757.3 347.299C746.1 336.399 729.7 333.799 714.1 333.799ZM440.4 309.099L436.1 320.099C435.4 321.899 434.6 323.599 433.8 325.699C432.9 327.999 433.6 328.299 434.3 330.899C436.1 337.599 436.5 350.299 436.7 358.499C436.8 361.299 437.3 362.499 437.2 365.799C437.2 373.699 438.1 379.999 438.3 386.799L440.4 444.599C440.4 449.699 440.4 454.799 440.4 459.799C440.4 462.099 440.3 464.899 440.4 467.199C440.5 469.699 441 470.799 440.9 473.999L443.6 523.799C443.8 525.699 444.5 528.099 444.6 530.199C448.4 529.299 473.1 519.699 477.2 518.099L493.3 512.099C501.7 508.499 503.6 508.599 505.2 501.899C506.4 496.799 506 486.699 506.1 480.699C506.1 477.699 506.7 477.099 506.7 473.899C506.7 453.899 508.3 435.799 509.3 417.099C509.9 405.999 513 384.799 513 376.699C513 374.099 512.9 365.099 516.2 365.099C522.9 365.099 519.9 379.199 519.9 385.099C521.7 385.599 522.5 386.399 523.7 387.599C524.8 388.599 526.1 389.599 527.2 390.399L532.9 384.499C534.1 383.199 534.3 382.599 535.5 381.299L551.4 365.199C557 359.999 560.7 358.599 566.2 354.199C572.7 348.999 572.8 350.899 575.1 346.199C569.5 343.199 563.1 338.899 557.9 334.999L533.3 316.999C531.8 315.799 532.8 315.899 530.2 315.899C530.2 320.299 529.1 328.099 528.3 332.399C527.7 335.699 526.9 340.999 525.5 343.799C524.6 345.599 525.2 345.299 523.3 345.799C520.7 340.499 522.8 329.399 522.8 323.699C522.8 318.999 523.9 309.199 520 305.999L479.7 273.799C478.3 272.699 477.8 271.999 476.3 270.899C475 269.799 474.4 268.999 472.8 268.599C472.8 279.099 469.7 286.599 465.1 295.099C463.1 298.699 457.7 307.599 455 310.799C450.2 316.699 445.7 311.899 440.4 309.099ZM709.9 309.099C710.6 309.499 710 309.099 710.9 309.699L711.5 310.099C711.6 310.199 711.7 310.299 711.8 310.299L714.1 312.699C716.7 315.799 719.1 318.899 720.9 322.699C721.9 324.599 722.6 326.499 723.5 328.499C718.5 328.499 705.9 329.099 702 330.099C699.8 330.699 699.5 331.399 697.5 330.399L684.1 326.399C685 325.099 688.8 323.299 690.6 322.399C700.8 316.699 702.1 314.299 709.9 309.099ZM316.9 313.799C316.9 310.999 317.3 310.599 317.4 308.499C317.6 305.899 316.9 305.099 317.4 303.799C314.9 304.499 313.5 306.999 311.7 308.599L295.2 323.699C290.9 327.699 288.8 328.999 284.2 333.699L273.3 343.799C275.2 344.199 277.1 344.799 278.6 345.799C284.4 349.699 287.8 348.799 296.2 353.399C297.1 353.899 296.9 353.799 297.5 354.199C297.6 354.299 297.7 354.399 297.8 354.399C300.1 356.299 309.8 372.799 311.7 376.799C313.2 380.099 314.7 383.199 316 386.699C316.7 388.699 322.4 406.199 323.8 407.299C324.3 405.499 324.8 405.799 325.4 404.199C326.5 401.399 325.4 403.999 325.4 400.999L325.9 371.599C325.9 367.699 325.7 362.699 329.6 362.699C334.5 362.699 333 372.099 333.3 376.399C333.4 378.699 333.8 378.899 333.8 381.599C333.9 389.799 334.4 396.099 334.8 403.699C335.2 410.799 336.2 417.899 336.3 425.299C336.4 428.199 337 432.999 337.3 435.799L338.4 457.799C338.4 460.399 338.8 465.799 339.2 468.499C339.7 471.999 339.6 475.599 340.1 479.199C340.5 481.999 341.3 486.299 341.5 489.399C342.1 496.899 341.9 504.099 343.1 510.899C344.4 518.599 347.3 521.399 347.3 529.299C349.8 529.099 349.8 527.699 352.6 527.699C358.1 527.699 366.4 533.399 371.5 536.099C372.6 534.399 374.2 533.399 375.9 531.999C377.5 530.799 379.1 529.899 381.5 529.799C379.4 525.799 380.9 524.799 381.2 523.199L384.3 501.099C385.8 492.599 386.8 484.299 388.2 476.099C391 459.499 393.8 442.799 396.1 426.199C399.2 404.099 403.5 384.599 406.5 364.099C407.2 359.699 407.6 356.099 408.4 351.799L411.9 326.999C411.9 324.399 404.7 314.399 404.5 309.099C402.1 309.299 398.2 311.199 395.9 312.099C381.3 317.999 379.6 312.099 377.2 294.399C376.6 290.099 375.7 285.299 375.6 280.799L374.5 267.099L332.2 293.099C328.3 295.499 327.2 295.899 325.8 300.299C323.9 306.299 322 315.799 322 323.299C322 325.499 323.9 327.099 322 327.299C318.3 327.599 316.9 317.299 316.9 313.799ZM68.3996 274.399C71.2996 275.199 84.9996 290.799 88.1996 293.999C90.2996 296.099 93.0996 298.399 94.5996 300.699C93.5996 304.599 87.6996 308.499 93.4996 321.299C94.4996 323.499 97.0996 327.499 99.8996 327.499C101.1 327.499 101.1 327.099 102 326.399C99.0996 322.099 97.8996 320.399 96.8996 313.599C96.0996 308.299 99.8996 304.699 101.3 300.499C102.3 297.399 101.7 295.899 102.2 292.499C103.2 285.399 102.5 272.699 107.8 271.299C108.4 273.699 109.6 274.799 109.9 280.199C110.4 290.799 110.4 299.999 113.8 309.999C115.1 313.899 117.4 317.599 120.3 320.299C122.2 321.999 121.7 320.899 122.6 323.799C123.6 327.299 127 338.899 127.2 341.799C122.1 342.999 116.5 346.499 111.9 348.599C102.8 352.699 106.3 353.499 95.4996 349.899C88.6996 347.599 85.5996 346.299 80.1996 342.599C78.0996 341.099 75.9996 339.299 74.1996 337.499C72.8996 336.099 69.7996 332.599 69.3996 330.799C73.1996 333.299 76.9996 336.099 80.9996 336.099C80.7996 333.699 77.9996 331.799 75.3996 329.099C69.9996 323.699 67.8996 321.899 63.3996 315.899C61.6996 313.699 59.0996 310.499 58.3996 307.699C65.5996 308.299 72.4996 319.099 77.7996 320.899C78.4996 321.099 80.3996 321.099 80.3996 319.799C80.3996 313.799 61.1996 300.999 58.2996 288.799C70.6996 295.399 79.2996 311.399 86.6996 311.399C88.7996 311.399 89.2996 309.399 89.2996 307.699C89.2996 305.999 84.4996 302.199 83.2996 300.599C79.6996 295.399 69.0996 279.799 68.3996 274.399ZM389.4 249.699C389.6 250.699 389.8 251.999 390.2 253.099C390.5 254.199 391.2 255.599 391.5 256.499C396.5 268.899 407.4 282.299 418.2 290.699C419.7 291.899 419.8 291.099 420.4 293.299C417.7 293.899 414.8 295.099 412.1 295.999C409.3 296.899 406.2 297.899 403.6 298.999L387.4 305.899C386 300.099 385.1 299.499 383.8 291.599C383 286.599 382.2 280.899 381.7 275.799C381.4 272.999 381.2 269.999 381.1 267.499C381.1 266.299 380.8 263.899 380.8 263.699C380.9 262.099 381.5 262.299 382.3 260.699C383.5 257.999 381.8 259.299 385.2 254.699C386.2 253.299 388.1 250.499 389.4 249.699ZM448.8 306.399C446.8 305.899 444.6 303.899 443 302.699C439.8 300.299 428.4 292.299 425.7 291.699C426.1 291.099 429.1 288.499 430 287.599C431.1 286.599 431.3 286.599 432.3 285.699L442.8 275.199C443.4 274.599 443.2 274.699 443.8 274.099L450.2 265.799C451.4 263.999 452.5 262.499 453.5 260.699C454.5 258.799 455.1 256.699 456.1 254.899C459.1 256.899 461.8 259.999 465 261.699C464.8 269.899 462.7 278.999 459.6 286.799C458.3 290.399 451.1 304.699 448.8 306.399ZM761.9 287.999C761.9 284.799 766.1 282.399 767.8 280.199C769.7 277.799 771.5 274.799 773.3 271.999C778 264.799 783.1 259.299 779.8 254.399C775.6 254.799 769.7 263.899 765.8 268.799L759.3 276.399C757.2 278.999 754.1 281.499 752.5 283.799C754.3 286.499 754.9 286.699 756.1 290.699C757.2 294.299 757.6 300.499 756.4 304.599C755.8 306.499 755.8 306.499 754.1 306.999C751.1 304.799 751.3 294.499 748.3 289.599C746 285.799 745.2 289.499 743.8 284.599C743.4 283.299 743 282.399 743 281.199C743 277.199 748.8 261.399 741.4 256.499C739.3 260.799 739.3 285.199 730.4 300.599C729.3 302.399 727.9 304.399 726.6 306.299C725.4 308.099 724.2 309.999 722 310.599C722.5 312.399 723.4 312.999 724.3 314.599C727 319.599 727.2 323.999 728.3 328.999C738.8 328.999 738.4 332.599 747.9 330.699C761.4 327.999 769.6 326.799 780.2 317.799C782.5 315.799 790.7 308.999 791.4 306.399C789.1 306.999 780.4 312.699 777.2 312.699C773 312.699 775.4 312.999 774.2 311.999C772.6 310.599 772.9 309.799 773.3 308.899C774.3 305.999 792.2 290.499 793 281.699L781.2 294.099C781.1 294.199 781 294.299 781 294.399C780.9 294.499 780.8 294.599 780.8 294.699C777.9 297.999 777.6 297.999 772.9 299.599C770.2 300.499 770.8 299.399 771.6 297.199C772.9 293.899 773.9 292.199 776.4 289.799C777 289.199 777.4 288.899 778 288.199L782.5 283.299C786 279.299 794.5 272.099 794.7 264.999C793.2 265.999 792.4 267.099 790.7 268.399C786.5 271.699 774.8 283.599 769.3 287.899C765.8 290.299 761.9 291.199 761.9 287.999ZM399.4 239.199C401.4 240.599 402.3 242.699 404.6 244.499C409.4 248.399 412.4 249.999 417.8 252.299C424.1 255.099 426.9 256.199 432.8 252.599C439.2 248.699 446.6 239.899 447.7 239.099C447.7 252.099 454.9 247.899 440.1 266.699L431.3 277.399C429.2 279.999 424.6 286.899 422.4 288.499C416.5 279.799 411.5 274.899 405.1 266.399C402.2 262.499 399.9 258.799 397.7 254.399C394.3 247.599 399.4 248.799 399.4 239.199ZM112.5 210.299C118.1 210.299 125.3 213.599 128 219.399C130.5 224.599 130.7 224.299 134.5 223.399C135.4 219.399 135 216.099 135 211.299C140.8 211.299 151.6 208.699 153.4 208.699C153.4 219.199 159.9 228.599 169 232.499C176.7 235.799 184.2 235.699 191.8 232.299C200.7 228.299 207 219.599 208 209.699C208.3 207.099 207.4 208.099 209.2 207.199C210.1 206.699 214.5 206.299 214.8 206.499C216 207.099 215.3 208.599 216.4 211.999C217.9 216.399 218.8 217.799 221.5 221.099C227.6 228.899 239.8 231.599 250.2 228.299C252 227.699 250.7 227.699 253.2 227.599C253.2 247.099 244.5 274.399 228.8 286.199C212.2 298.599 202.8 294.399 185.6 287.199L175 282.499C173.2 281.699 171.7 280.899 170.1 280.099C166.1 278.099 167.7 276.899 164.9 276.899C163.5 276.899 162.3 278.799 162.3 279.499C162.3 286.899 175.8 304.199 186.4 308.499C188.5 309.399 190.5 310.199 192.8 310.999C195.3 311.799 197.5 311.999 200.1 312.599C200.6 318.099 206.3 323.799 206.9 326.299C194.8 326.299 185.5 324.799 175.7 322.299L165.7 319.699C164.3 319.299 163.5 318.999 162.1 318.599C155.6 316.399 151.3 310.099 151.3 316.799C151.3 322.099 169.4 327.499 173.6 328.699C193.6 334.599 191.3 334.699 212.3 334.699C216.4 334.699 227.5 331.699 227.5 327.299C227.5 323.999 219 325.699 215.4 325.699C213.2 325.699 209.8 318.899 209.6 316.199C212.8 316.299 219.4 318.099 222.6 318.899C226.9 319.999 231 321.299 232.7 325.099C234.3 328.599 235 333.199 236.1 337.399C236.7 339.899 236.9 341.399 237.6 343.799C238.3 346.099 238.6 348.499 239.5 350.299C237.5 351.299 235.3 351.999 233.2 352.899C228.1 355.199 220.4 359.699 213.8 360.199C207.2 346.499 210.9 339.699 203.8 339.699C200 339.699 200.2 346.599 200.8 350.099C201.3 352.899 203.6 358.899 204.9 361.299C202 361.299 201.8 361.799 199.1 361.899C196.3 361.899 196 361.399 193.3 361.299C189 361.199 189.2 362.399 187.1 354.899C186.1 351.299 185.5 348.499 184.8 344.599C183.9 339.299 185.5 335.099 180.7 335.099C177.6 335.099 177 339.699 177 342.499C177 347.299 180.2 355.899 182.3 359.799C178.9 359.799 165.2 357.399 161.8 356.099C159.4 355.199 159.7 354.199 158.5 350.899C156.9 346.399 156 343.799 155.1 337.999C154.4 332.899 156.4 326.099 150.7 326.099C148.5 326.099 147.3 328.999 146.8 331.199C145.3 338.799 151.4 349.199 152.2 352.899C138.2 349.599 138.8 346.999 134.7 338.899C131.7 332.999 129.1 318.099 129.1 310.899C129.1 306.999 131.4 305.099 133.9 303.599C135.5 302.699 140.9 299.999 142.7 299.799C142.7 304.899 142.2 311.299 143.2 315.599C148 316.899 148.5 311.999 149.7 305.299C153 287.899 152.3 267.799 143.1 252.599C141.7 250.299 139.1 245.699 135.8 245.699C132.8 245.699 134.5 248.299 129.5 248.299C89.4996 248.599 91.2996 210.299 112.5 210.299ZM158.8 207.699C158.8 227.699 181.6 237.899 195.3 224.199C205.3 214.199 204.5 196.699 190.5 188.099C182.5 183.199 171.2 185.199 164.9 192.599C164.8 192.699 164.7 192.799 164.7 192.899C161.5 196.499 158.8 201.199 158.8 207.699ZM242.3 224.999C246.8 224.999 254.2 223.499 254.4 218.199C254.6 211.799 255.4 206.899 255.4 200.299V188.699C255.4 183.699 240.1 181.399 232.8 185.599C231.2 186.499 229 187.999 227.7 189.399C221.7 195.399 221.8 199.799 221.8 206.599C221.8 214.799 231.8 224.999 242.3 224.999ZM260.7 212.399C261.1 207.599 261.8 203.099 261.8 197.699C263.5 198.899 263.3 202.999 263 205.199C262.6 208.199 262.5 211.099 260.7 212.399ZM423.6 233.899C414.5 233.899 403.5 226.699 396.8 222.299C391.5 218.799 389.3 216.199 386.6 212.999L376.9 199.599C374 194.699 368.6 179.799 370.5 174.499L371.1 171.999C371.8 168.199 373.9 157.199 377.7 155.399C380.3 154.099 398.3 150.899 403.4 149.599C408.1 148.399 411.2 147.399 415.5 145.899C425.3 142.599 438.3 136.099 446.8 130.399C448.8 129.099 454.1 124.499 456.1 123.999C456.1 123.999 458.3 133.299 460.1 137.899C461.7 141.899 464.5 145.799 467.3 148.599C468.1 149.399 468.6 149.899 469.4 150.699C475.4 156.299 474.9 154.499 477.9 164.799C478.4 166.599 478.3 166.699 479.1 168.299C481.7 173.599 479.8 179.699 478.1 185.899C477.1 189.599 475.5 193.299 474.1 196.599C471.1 203.199 466.9 208.699 461.8 213.699C454.8 220.699 445.3 228.399 435.2 230.699C432.7 231.399 425.5 233.899 423.6 233.899ZM215.5 202.399H208.1C205.7 192.099 201.4 185.499 191.8 181.399C189.6 180.499 189.6 180.499 186.7 180.199C175.4 179.199 171 180.299 162.7 186.799C155.6 192.299 154.8 200.699 153.6 203.399L141 203.899C138.7 203.999 139.1 204.399 136.8 204.399C136.8 198.099 142.1 191.899 146.1 187.999C150.3 183.999 157.2 181.099 162.4 178.599C174.1 173.099 181.7 172.299 187.9 156.199C188.4 154.999 188.3 154.499 188.8 153.399C190.9 154.999 191.9 158.699 198.9 163.299C206.5 168.299 220.7 172.099 230.4 172.799C234.7 173.099 235.8 173.099 239.4 173.799L245.7 175.399C246.5 175.799 246.7 175.999 247.3 176.499C244 176.499 244.2 175.899 241.4 176.299C238.9 176.599 237 176.899 235.2 177.499C231.5 178.599 228.2 180.399 225.7 182.699C219.7 187.799 215.5 194.499 215.5 202.399ZM364.2 177.199C364.2 185.099 366.9 190.399 368.4 196.599C366.2 195.399 364.6 193.899 362.7 192.299C357.8 188.399 350.5 181.399 350.5 174.499C350.5 169.799 353.2 168.699 357.3 168.699C360.9 168.699 363 170.399 365.2 171.899C364.9 172.599 364.2 176.199 364.2 177.199ZM647.4 167.699C648 168.399 647.6 167.899 648.3 168.899C648.7 169.599 648.8 169.899 649.2 170.599C652.5 176.999 660.5 181.999 667.3 183.999C669.1 184.499 669.8 184.399 671 185.499C660.2 185.599 647.4 178.199 647.4 167.699ZM619 168.299C619 178.499 627.6 192.799 637.5 197.599C642.9 200.299 647.6 203.999 653.8 205.399C657.2 206.199 670.3 210.399 673.1 206.599C672.1 206.099 664.6 204.799 662.7 204.399C659.5 203.699 656.5 202.799 653.5 201.499C619 186.999 623 162.299 621.6 159.299C619.7 160.699 619 164.999 619 168.299ZM561.2 208.699C552.6 202.899 569.8 158.099 584.8 157.699C583.1 160.299 580.3 160.899 576.2 167.499C574.8 169.699 574.2 171.599 572.9 173.699L569.5 179.799C567.2 183.699 565.6 187.899 564.2 192.799C563.8 194.199 563.6 194.799 563.3 196.599C562.6 200.399 561.3 203.999 561.2 208.699ZM118.8 188.699C119 181.799 133.4 167.999 138.2 164.499C142.4 161.599 147.7 159.499 152.4 157.099C161.3 152.699 161.4 150.099 165 147.599C165 152.499 163 153.699 158.7 157.099C152.9 161.699 148.6 163.999 142.4 168.699C140.4 170.199 138.6 171.599 136.4 173.199L118.8 188.699ZM237 154.099C236.2 152.499 235.9 151.999 234.6 150.699L231.9 148.099C231.8 147.999 231.7 147.899 231.6 147.899C229.7 146.199 227.5 143.999 225 142.999C221.9 141.699 210 137.699 207.5 141.099C211.4 141.399 223 146.699 226.4 148.999C229.1 150.499 234.1 153.399 237 154.099ZM116.7 163.499C117.8 163.099 117.2 163.299 118 162.699C119.3 161.799 125.2 155.899 132.4 150.899C141.4 144.599 147 144.399 147.1 137.799C134.8 137.799 118.1 158.499 116.7 163.499ZM709.4 147.199C709.4 142.899 711.1 138.699 713.2 136.299C714.9 134.399 719.7 130.999 723 130.899C722.8 131.099 722.7 131.399 722.4 131.899C720.8 133.999 717.8 135.799 712.7 142.699C711.5 144.099 710.5 146.399 709.4 147.199ZM120.4 138.799C124.1 131.799 127.2 129.299 135.6 129.299C135.5 131.799 135.3 131.999 133.3 132.799L124.5 136.699C123.1 137.499 122.3 138.399 120.4 138.799ZM195.5 125.199C199.2 125.199 205.3 124.499 207.9 124.899C212.4 125.599 214.7 125.499 219.7 125.699C227.5 126.099 242.1 130.599 248.4 135.799C250.8 137.799 252.6 139.699 255.2 141.699C257.8 143.699 263.5 152.499 267.5 155.099C267.5 147.099 265 143.799 260.4 140.199C245.6 128.699 251.6 131.599 233.2 123.299C225.2 119.599 200.1 118.899 195.5 125.199ZM165.6 117.299C168 113.699 176.3 107.299 181.7 105.999L199.7 103.599C207.1 104.099 211.1 104.199 218.2 105.699C221.8 106.499 226.1 106.999 229.6 107.899C230.9 108.199 241.3 112.799 243.2 114.699C244.4 115.899 245.5 116.999 245.9 118.799C243 118.099 239.6 116.299 237 115.099L222.7 109.999L206 107.199C178.5 107.299 171.9 115.799 165.6 117.299ZM357.4 106.299L356.9 106.799L357.4 106.299ZM697.8 142.499C697.8 136.399 698.4 130.899 700 126.299C704.2 113.799 716.9 103.099 732 103.099V101.999C730.1 101.599 729.5 100.899 727.3 100.899C717.5 100.899 710.6 105.299 705.4 110.999L699.1 119.999C696.4 125.399 694.7 132.999 696.4 139.199L697.8 142.499ZM467.2 89.9992C468.2 91.9992 469.2 93.8992 469.3 96.7992C476.8 97.3992 493.9 114.999 491.9 123.599H490.3C490.8 121.299 490.7 121.799 489.2 119.999C485.2 115.299 473.9 102.699 469.3 101.499C469 102.099 467.7 107.899 467.7 108.899C467.7 109.399 471.2 111.599 472 112.399C476.7 116.899 477.9 119.299 481 125.499C482.8 128.999 488 140.899 486.1 145.099C485.1 147.399 486.1 146.399 484 146.699C486.7 141.099 473.3 117.699 464.6 115.699C461 121.099 459.7 120.499 465.4 133.799C472.6 150.599 484.5 147.099 484.5 163.499C486.6 161.099 488.1 159.299 492.2 158.599C495.6 157.999 495.4 159.199 496.3 156.399C500.2 144.299 503 139.699 503 126.799C503 119.699 495 108.599 490 103.499C486.3 99.7992 484.6 97.9992 479.7 95.3992C477.3 94.0992 469.4 90.1992 467.2 89.9992ZM357.4 106.299C358.6 105.499 359.2 104.899 360.1 103.799L361.3 102.399C371.1 91.8992 381.7 86.4992 395.7 83.1992C402 81.6992 408.2 80.5992 413 83.1992V85.7992C405.4 90.8992 392.7 86.0992 369.9 105.199L362.4 112.899C356.3 119.999 347.4 131.399 350.6 141.399C351.1 142.999 352.1 145.799 353 147.399L355.4 151.299C355.8 151.899 356 152.099 356.3 152.499C356.3 142.799 361.2 132.099 365.4 126.399C370.2 119.699 372 117.699 378 112.199L394.2 102.099C398.1 100.099 401.9 98.4992 406.5 96.9992C412 95.1992 432.1 89.4992 432.1 99.3992C428.4 100.199 427.8 98.0992 417.6 100.699C413.4 101.799 409.1 103.099 405.5 104.899C397.9 108.599 391.6 110.999 384.7 116.599C379.4 120.899 372.5 128.299 369.1 134.099C362.4 145.699 362.5 148.899 364.9 159.299L365.5 157.799C366.7 153.399 366 153.599 369.3 148.499C372.9 143.199 372.9 144.099 376.3 140.799C378.6 138.599 382 136.399 384.7 134.499L393.7 128.799C403 123.499 413.3 117.199 423.9 114.799C429.5 113.499 432.5 113.299 432.1 118.799C429.1 119.499 426.5 119.699 423.4 120.599C410.1 124.399 399.5 130.699 388.3 137.999C385.1 140.099 379.4 144.799 377.5 147.699C402.7 141.799 407 143.299 431 131.799L438.9 127.599C442.2 125.599 445.7 123.499 448.8 121.199L457.6 113.699C459.6 111.099 460.7 105.099 461.6 101.399C460.1 100.999 459 99.7992 457.9 98.7992C452.2 94.1992 445 90.7992 437.7 89.0992C436.1 88.6992 434 88.1992 432.3 88.2992C429.9 88.4992 429.8 89.3992 427.5 88.2992C430.3 84.4992 439.3 84.5992 445 85.9992C451.1 87.5992 455.6 89.4992 460 92.4992C459.3 89.4992 458.2 88.2992 457.2 85.2992C453.6 75.0992 407 60.0992 369.7 91.9992L361.8 99.8992C361.7 99.9992 361.6 100.099 361.6 100.199C360 101.899 357.9 104.099 357.4 106.299ZM70.4996 289.599C68.8996 289.199 67.8996 287.899 66.3996 286.899C64.8996 285.899 63.7996 285.099 62.2996 284.199C60.1996 282.999 55.0996 279.799 52.1996 281.799C46.9996 285.499 55.7996 297.599 57.3996 300.599C47.2996 298.199 48.2996 309.399 56.9996 319.399C63.6996 327.099 59.6996 325.199 63.8996 332.999C65.4996 335.999 67.5996 338.299 69.7996 340.799C71.8996 343.099 74.4996 345.299 77.1996 347.099C84.9996 352.399 89.2996 352.399 96.2996 355.799C94.3996 358.399 70.8996 367.299 61.7996 377.999C57.0996 383.499 55.1996 389.699 53.1996 397.799C50.2996 410.099 47.0996 438.999 48.5996 450.199C49.6996 458.299 49.8996 467.799 50.5996 476.599C52.7996 504.699 58.2996 544.399 75.2996 565.899C77.5996 568.799 83.9996 573.799 85.1996 576.999C85.9996 579.099 86.4996 580.099 87.3996 582.199C92.3996 594.599 89.5996 604.999 85.4996 617.299C81.6996 628.999 73.9996 643.899 81.1996 655.599C85.1996 662.099 81.4996 665.299 80.0996 672.199C79.2996 676.099 78.0996 680.799 78.3996 684.599C78.6996 688.299 81.6996 691.999 84.0996 693.599C83.5996 699.899 82.4996 707.299 81.9996 713.599C80.9996 726.599 79.2996 742.499 79.2996 755.099C79.3996 771.599 77.9996 808.899 79.6996 820.899C80.4996 826.399 79.7996 836.799 79.7996 842.799C79.7996 846.399 79.4996 850.199 79.9996 853.599C80.3996 856.099 80.7996 861.499 80.7996 863.799C72.7996 863.799 44.9996 862.599 39.7996 865.399V868.599C44.0996 871.499 49.1996 871.499 54.4996 871.799C56.8996 871.899 57.3996 872.299 60.2996 872.299C68.4996 872.299 76.7996 871.999 84.1996 873.099C89.0996 873.799 175.9 873.699 181.3 872.899L229.5 872.199C246.2 872.199 261.2 871.699 277.8 871.699C286.4 871.699 293.1 871.199 301.4 871.199C306 871.199 308.7 871.799 313 871.699C341.3 871.499 369.1 873.299 397.6 873.299C406.2 873.299 413.7 873.799 421.8 873.799C438.5 873.799 453.5 874.299 470.1 874.299L512 874.999C513.6 875.399 514 876.899 516.8 876.399C519.6 875.899 518.3 873.799 527.1 875.099C532.5 875.899 566.3 875.599 575.2 875.799C577.8 875.899 578 876.499 580.3 876.299C594 875.199 608.5 875.399 622.4 875.299L633.9 875.899C649.3 877.599 691.9 877.499 706 876.399C713.3 875.799 722.6 876.499 730.2 876.399L732.9 875.999C735.3 875.199 738.6 875.399 740.8 875.699C744.2 876.199 749.7 875.799 753.3 875.799C757.5 875.799 761.8 876.499 763.8 874.199C766.8 870.899 763.4 867.999 759.6 867.899C751.6 867.599 744 867.399 735.4 867.399L743.8 835.299C743.9 834.099 743.8 833.099 743.9 831.799C744.4 828.199 746.3 823.299 746.4 819.099C755 819.099 757.8 811.599 763.7 807.499C765.2 806.499 766.8 805.999 768.6 805.099C770.8 803.999 771.1 803.499 772.9 801.999L775 799.899C780.3 793.999 781.5 794.499 786.1 785.799C791.7 775.299 795.8 765.799 797.4 752.999C798.1 747.599 797.7 721.799 796.7 714.099C796.5 712.799 796.2 712.599 795.9 711.199C795.1 707.699 795.1 701.299 795.2 697.199C795.2 686.299 793.6 682.999 794.7 669.399L795.8 648.399C796.8 639.899 796.3 629.699 797.4 621.099L802.8 567.699C803.8 560.799 804.6 554.199 804.6 547.399C804.6 544.199 805.1 543.599 805.2 540.599L803.1 505.899C802.3 496.799 803.5 485.999 802.5 477.099C801.5 468.499 802.1 457.599 802.1 448.099L801.4 426.799C801.1 424.599 800.6 422.399 800.6 420.299C802.1 421.299 801.3 421.399 803.2 421.899C805.2 418.099 807.2 414.299 809 410.299C810.3 407.399 812.7 400.599 812.7 396.699C808.4 393.799 808.9 394.099 805.2 389.499C797.4 379.699 788.7 370.599 780.4 361.299C777.8 358.399 782.5 363.599 779.9 360.699C776.5 356.999 772.9 353.799 769.7 349.799C766.2 345.399 754 336.499 753.3 335.699C761 335.499 771.4 330.899 777.8 327.099C779.9 325.899 782.3 323.899 784.2 322.399C788.5 318.899 792 315.799 794.9 310.999C798.3 305.199 799.4 297.299 790.2 299.499C793.3 294.899 797.1 291.299 799 285.699C801.6 277.899 798.2 274.399 799.1 271.699C800.5 267.599 802.7 260.499 798.2 258.399C791.2 255.099 782.7 269.099 778.1 272.199C779 268.799 793.8 255.999 782 249.399C777.3 246.799 774.8 249.999 772.1 252.499L767.6 257.499C766.8 258.599 766.1 259.699 765.1 260.799C760.8 265.699 755.4 272.999 750.3 276.399C755.6 253.599 742.8 245.699 737.7 251.199C735.4 253.599 735.1 259.299 734.6 263.399C733.5 272.499 731.6 279.599 729.1 287.299L724.6 297.499C722.8 300.799 720.4 303.299 718.3 306.399C713.7 303.999 712.1 299.199 708.3 301.099L703.5 304.699C701.7 305.999 700.5 306.899 698.7 308.299L681.5 320.499C680.1 321.599 680.8 321.599 678.9 322.099C678.4 320.199 677.5 319.899 676.1 318.599C674.4 316.899 670.7 307.999 670.5 304.199C670.1 294.799 669.3 287.699 671.4 279.399C672.6 274.499 675.7 276.599 680.5 275.399C690.6 272.799 701.3 263.199 705.1 253.799C705.5 252.799 705.5 252.499 706 251.599C706.9 249.799 708.1 249.399 709.3 248.099L713.3 242.099C719.6 226.799 724.3 202.899 721.7 185.799L719.3 174.599C721.1 174.599 723.6 174.199 726.1 174.099C739.1 173.199 751.9 162.199 755.6 149.999C766.1 115.299 734.3 83.2992 703.8 95.5992C690.9 100.799 682.7 112.099 680.4 125.799C679.7 129.699 679.4 136.799 681 140.099C680.4 139.999 667 134.599 654.1 133.299C637.7 131.699 624.9 133.899 611 139.499C608.9 140.299 607 140.899 605.2 142.099C602.7 143.699 602.7 144.899 599.9 143.499C584.5 135.899 565.1 141.799 553.6 153.999L548.1 161.099C546.9 162.699 545.8 164.099 544.6 165.999C534.1 183.399 534 209.099 545.7 225.899C547 227.799 548.5 229.099 549.1 231.499C547.1 233.699 545.6 234.099 542.6 235.499C539.9 236.799 536.9 237.099 535.4 239.399C537.4 241.599 537.3 240.799 540.7 240.499C543.4 240.299 544.4 239.999 546.9 239.299L554.5 235.899C563.3 231.099 565.8 228.799 573.2 221.499L580 213.599C584 208.799 596.4 191.699 596.9 185.899H598C600.1 194.799 610.5 204.499 617.5 208.999C630 216.899 642 220.899 656.6 222.999C659 223.299 664.9 222.699 666.7 223.399C670.2 224.899 667.1 237.999 666.3 240.899C663.6 250.399 650.9 264.499 650.6 267.799C654 269.599 658.5 267.299 661.8 265.299C669.9 260.199 676.1 251.499 678.9 242.499C681.1 235.399 699.6 228.399 702.5 241.799C703.9 247.899 700.3 252.799 697.4 256.199C697.1 256.599 696.7 256.999 696.4 257.299L693.5 260.199C693.4 260.299 693.3 260.399 693.2 260.399C689.4 263.499 685.2 265.799 680.2 267.299C668.1 270.999 666.8 270.699 664.6 284.199C664.2 286.699 664.6 289.199 664.3 291.799C662.9 301.599 663.4 303.599 665.8 312.599C666.3 314.399 667.4 316.399 668.3 317.999C669.5 320.299 670.4 321.099 671.8 322.899C676.4 328.899 681.6 335.699 689.7 337.599C688.6 341.599 672.2 363.699 669.4 366.599L664.2 372.399C662.9 373.599 662.3 373.799 661 374.999C657.1 378.599 652.4 381.699 647.2 383.799C644 385.099 642.6 385.499 638.5 386.099C634.5 386.699 632.3 386.599 628.8 386.399C623.1 385.999 615.3 383.999 611.6 381.599C606.5 378.299 604.1 375.299 602.1 368.999C600.7 364.599 599.3 354.199 600.5 349.099C604.7 349.099 607.9 347.099 610.5 345.399C628.3 333.499 623.2 331.999 627.2 327.399C628.7 325.599 629.2 326.699 631.2 324.099C633.3 321.399 635.5 319.699 637.6 316.799C639.6 313.999 641.5 310.999 643.1 308.099C646 302.699 651.3 293.599 647.3 287.599C645.1 288.699 643.4 290.199 641.4 291.699C630.6 299.799 622 309.199 606.4 304.299C603.9 303.499 602 302.399 599.6 301.099C590 295.799 580.1 284.399 576 274.199C571.3 262.399 573.2 249.699 573.1 237.599C573.1 235.299 574.2 230.099 573.4 228.399C571.8 224.699 569.2 229.299 569 231.399C568.3 238.199 568.6 264.099 570.1 270.099L575.3 285.399L580 292.799C580.1 292.899 580.2 292.999 580.2 293.099C580.3 293.199 580.4 293.299 580.4 293.399L583.7 296.899C588.4 302.699 588 302.699 593.5 307.599C598.8 312.299 606.4 316.099 613.8 317.299C618 317.999 620.3 316.999 623.6 316.999C623.6 324.899 621.3 328.899 616.6 333.699C614.7 335.599 614.8 336.199 611.5 336.499C606.5 336.899 602.3 337.499 597.5 338.299C591.9 339.199 589.2 340.099 584.5 341.599C581.6 342.499 579.4 339.699 574.7 336.999C567.2 332.699 543.9 316.399 537.3 310.799C534.5 308.499 529.7 302.899 527.2 301.499C521.5 298.299 516.4 293.199 511.1 289.199L493.1 275.199C487.9 271.199 482.6 266.699 476.8 263.599C475.2 262.699 475.5 262.899 473.3 262.899C474.4 258.099 472.2 256.699 469 254.599C456.9 246.599 456.1 253.199 454.5 241.699C454.1 238.499 454.8 238.199 454.9 235.499C455 232.699 454.4 232.199 454.4 229.199C458.4 227.099 461.7 223.399 465.1 220.499C466.1 219.599 465.2 220.499 466.2 219.499C469.2 216.499 472.1 213.499 474.6 209.999C475.9 208.199 476.5 206.999 477.6 205.099C482 197.099 478.7 198.499 485.1 196.299C489.2 194.899 491.9 192.899 495.2 190.599C498.8 188.099 500.5 186.199 503 182.599C505.2 179.499 506.9 175.899 507.3 171.099C507.9 165.199 504.7 163.999 502.2 160.299C503.8 153.399 521.6 129.199 503.1 106.299C501.2 103.899 499.5 101.899 497.5 99.7992L491.2 93.9992C485.8 89.8992 478.6 86.2992 471.3 84.3992C467.6 83.4992 466.8 83.8992 464.8 80.8992C464.3 80.0992 464.9 80.8992 464.1 79.9992L461.7 77.6992C442.1 61.0992 406.2 62.7992 385.5 72.9992C372.7 79.2992 360.8 87.5992 352.7 99.5992C340 118.299 338.5 139.799 351.3 158.199C352.2 159.499 353.2 160.599 354 161.799C352.6 162.499 351.8 162.199 350.3 162.799C338.3 167.699 342.4 184.299 350.3 190.699C355.9 195.199 361.9 200.099 370.3 200.099C371.7 206.299 380.5 216.599 385.9 221.799L392.9 227.399C392.9 230.199 392.9 232.999 392.9 235.799C392.9 237.099 393 238.699 392.9 239.999C392.8 242.299 392.4 241.899 392.4 244.199C389.3 242.699 385.6 248.099 383.6 250.099C375.8 257.799 379.9 255.299 370.7 260.799C368.9 261.899 367.4 262.599 365.7 263.699C356.1 269.899 345.7 275.299 335.9 281.199C330.9 284.299 328.9 282.999 324.3 285.399C320 287.599 300.5 305.899 295 311.299C289.7 316.599 283.8 320.999 278.4 326.299C277.6 327.099 277.4 327.299 276.5 328.099L275.9 328.599C273 331.199 278.2 326.499 275.3 329.099C274.8 329.599 274.6 329.799 274.2 330.099C271.2 332.699 269 335.099 266.2 337.899C264.1 339.999 262.3 342.099 259.4 342.699C258.6 342.899 257.1 342.999 255.8 343.299C251.5 344.099 247.9 346.399 244 347.299C244 342.299 242.6 335.999 241.7 331.199C240.6 325.799 239.5 320.899 236.3 317.699C231.8 313.199 215.1 309.499 207.8 308.899C205.8 300.499 209.4 305.999 220.8 300.299C225.3 297.999 228.8 295.199 232.5 292.099L244.4 278.199C252.5 267.199 256.3 253.999 258.5 240.699C259.1 236.999 257.8 235.399 259.3 230.999C260.3 228.099 259.1 224.299 261.3 221.999C262.6 220.699 263.1 220.399 264.1 218.999C265.8 216.799 267.3 214.699 268.4 211.699C271.2 203.999 270.1 200.399 268.3 192.699L274.7 185.399C275.4 184.499 276 183.599 276.6 182.599C284.8 169.699 287.8 154.299 282.8 139.299C280.5 132.399 277.6 126.899 273.5 121.299C269.5 115.999 264.7 111.699 259.5 107.399C247.2 97.2992 239.7 95.3992 225.3 90.6992C223.7 90.1992 224.3 90.6992 221.6 90.6992C218.6 90.6992 217.1 89.2992 214.5 88.7992C206.8 87.1992 195.5 87.9992 188.5 89.1992C177.6 91.0992 169.6 93.8992 161.4 98.8992C155.6 102.399 150.6 106.599 146.5 111.799L143.7 115.799C142.9 116.799 142.6 117.399 141.2 116.999C136 115.499 133.1 113.199 126 115.499C105.8 121.999 94.1996 139.899 89.2996 159.699C85.7996 173.899 86.9996 188.299 95.2996 200.299C96.8996 202.699 98.7996 203.699 100.3 205.899C99.6996 206.799 99.6996 206.799 98.8996 207.599C94.6996 211.599 90.9996 216.299 90.8996 222.699C90.7996 227.499 91.2996 230.699 92.7996 233.899C98.5996 246.199 111.1 253.299 124.5 254.799C130.2 255.399 131.4 255.399 136.6 254.199C137.6 258.399 140.8 262.899 142.2 271.199L143.5 280.999C143.9 284.499 143.9 287.899 143.9 292.099C139.6 292.499 131.9 295.499 128.5 297.199C126.1 298.399 124.6 299.799 123.1 301.699C121.4 303.699 121.2 306.899 119.8 308.899C116.4 294.299 117.3 298.399 116.2 283.699C115.8 278.899 115.9 272.599 113.1 268.899C106.4 259.899 98.7996 270.499 98.2996 282.699C98.1996 285.999 97.2996 290.599 97.2996 293.699C94.7996 291.999 85.4996 281.299 80.5996 277.299C77.4996 274.699 71.9996 267.599 67.9996 268.199C64.9996 268.599 63.6996 271.999 63.7996 274.799C63.4996 279.999 68.0996 286.099 70.4996 289.599ZM495 405.699L457.2 408.299C457.1 405.999 456.7 405.399 456.7 402.499C456.7 393.199 458.5 360.399 456.7 356.799C471.6 356.799 484 355.199 498.7 355.199C498.4 358.699 497.2 362.799 497.1 366.699C497 371.099 497.1 375.899 497.1 380.399C497.1 387.299 496.6 399.099 495 405.699ZM449.8 394.199C449.8 384.399 450.3 375.599 450.3 366.399C450.3 358.899 449.3 349.999 455 351.099C456.1 351.299 455.3 351.399 456.3 351.299L460.2 350.599C467.8 349.499 478.2 348.999 486.1 349.599C491.7 350.099 494 349.399 499 350.899C500.5 351.299 502.6 352.299 503.5 353.199C506.3 355.999 504.7 373.399 504.4 376.899C504.1 379.799 503.4 384.899 503.4 387.999C503.2 400.199 505 409.199 497 411.999C493.1 413.399 470.6 414.099 464.1 415.299C447.6 418.099 449.8 407.099 449.8 394.199ZM180.8 249.699L181.4 250.699C181.4 250.699 182 251.399 182.2 251.499C185.8 254.599 192.5 257.399 197 258.699C202.8 260.399 211 261.799 218.6 261.799C224 261.799 226.7 260.499 229.6 260.199C229 258.999 228.5 251.299 228.5 249.199C224.6 249.299 210.9 251.799 203.3 251.799C195.6 251.799 188.1 250.299 180.8 249.699ZM208.1 245.499C196.3 245.499 186.8 243.399 175 243.399C174 243.399 169 245.599 175.9 251.399C177.3 252.599 178.9 253.899 180.3 254.899C192.1 263.399 204.9 265.899 220.8 265.899C227.7 265.899 229.4 265.299 233.9 262.199C233.6 258.699 233.3 263.999 233.4 255.899C233.4 253.299 233.4 250.599 233.4 247.999C235 247.199 238.7 247.099 238.7 244.799C238.7 239.999 226.1 244.399 217.2 244.799C214 245.099 211.9 245.499 208.1 245.499ZM664.2 503.999C677.1 503.999 687.9 498.699 695.7 493.499C696.9 492.699 697.5 492.299 698.7 491.299L704.2 486.299C705.4 485.099 705.5 484.599 706.6 483.399C711.4 477.999 713.6 476.499 713.6 469.899C721.7 472.099 709.1 498.499 683.5 506.999C670.1 511.499 650.7 511.499 637.6 505.399C632.5 502.999 621.1 493.599 623.8 490.899C626.1 488.599 631.5 496.299 639.5 499.899C645.4 502.599 656.1 503.999 664.2 503.999ZM766.6 214.999C766.6 210.399 777.4 204.299 781.1 202.199C794.1 194.999 802.5 190.599 815.6 182.599C818.6 180.799 821.5 179.499 824.4 177.799C825.8 176.899 833.8 172.399 830.5 177.999C829.3 180.099 825.6 183.299 823.7 184.899C811.4 195.399 786.3 207.599 773.9 216.599C768.9 220.299 766.6 217.199 766.6 214.999ZM0.599609 186.099C0.599609 184.699 2.9996 183.499 4.4996 183.799C7.2996 184.299 14.5996 189.599 17.5996 191.199C20.6996 192.899 23.0996 194.499 26.0996 196.299L60.1996 216.899C65.7996 220.299 66.9996 219.599 69.3996 220.799C65.6996 225.899 46.9996 216.299 41.9996 213.999C32.9996 209.899 21.6996 203.499 13.4996 198.399C9.7996 196.099 0.599609 190.999 0.599609 186.099ZM694.7 73.1992C694.7 69.5992 727.3 13.4992 727.3 25.3992C727.3 27.3992 704.9 72.4992 700.7 76.0992C699.2 77.1992 694.7 78.1992 694.7 73.1992ZM148.8 78.3992C144.8 78.0992 137.5 71.1992 134.6 68.8992L109.5 41.9992C106.8 38.4992 102.5 33.9992 105.3 31.1992C108.9 27.5992 115.2 36.0992 118 39.7992L139.2 64.7992C141 66.9992 142.5 68.9992 144.4 71.1992C145.9 72.7992 148.6 75.8992 148.8 78.3992ZM523.4 59.4992C523.4 54.8992 524.7 47.9992 525.4 44.0992C526.3 38.8992 527.1 34.6992 528.4 29.6992C529.6 24.8992 530.7 20.4992 531.9 15.7992C533.4 9.79922 533.8 4.19922 537.7 4.19922C541.5 4.19922 541.3 7.89922 540.7 10.7992C540 13.6992 539.3 15.7992 538.5 18.5992L527.3 57.2992C526.3 60.6992 526.1 63.4992 524.6 64.5992C524 63.7992 523.4 60.9992 523.4 59.4992ZM294.3 3.29922C294.3 9.69922 295.5 12.8992 296.9 18.4992C298.8 25.8992 301.8 36.2992 305.1 42.8992C305.8 44.1992 310.7 53.4992 311.8 50.8992L302.3 11.9992C301.1 6.19922 300.8 0.699219 296.8 0.699219C295.7 0.699219 294.3 2.09922 294.3 3.29922ZM391.5 198.199C395.4 198.199 395.1 197.899 398.3 197.099L400.5 199.599C403.2 201.699 406.3 203.399 409.6 204.699C424.8 210.699 439.7 206.999 452.9 200.299C455.6 198.999 455.5 198.599 457.4 198.599C459.6 198.599 461.7 198.899 461.1 196.299C461.1 196.099 458.4 190.599 453.8 195.499C453.7 195.599 453.6 195.699 453.5 195.799C449.7 199.699 435.4 203.499 430.2 203.499C420.8 203.499 415.6 204.199 407.1 199.299C404.2 197.599 401.1 194.799 398.6 194.099L395 192.999C392.6 192.899 387.3 198.199 391.5 198.199ZM104.1 218.199C104.1 221.799 105.5 221.099 108.8 221.399C110.9 221.599 113.1 223.199 114.1 224.499C111.8 227.899 107.4 231.599 110.4 236.099C112.1 234.899 112 233.599 113.8 232.099C115.4 230.699 116.7 229.799 118.3 228.699C119.8 230.899 121.1 232.499 122.5 234.999C123.2 236.299 123.8 236.999 124.4 238.299C125.5 240.599 124.4 240.599 126.1 241.799C130.6 238.799 125.2 229.599 123.4 226.099C115.6 210.899 104.1 213.599 104.1 218.199ZM171.9 209.799C171.9 212.899 172.3 214.799 173.4 216.699C176.4 221.999 181.6 220.199 183.8 217.499C189.1 210.899 183.9 198.799 178.7 198.799C174.2 198.699 171.9 204.999 171.9 209.799ZM227.6 208.199C227.6 222.899 240.7 220.699 240.7 211.399C240.7 206.899 241.4 199.299 233.9 199.299C230.4 199.299 227.6 204.499 227.6 208.199ZM202.9 225.499C202.9 227.399 203.3 227.799 205.4 228.299C208.1 228.999 207.5 228.099 209.2 228.099C216.6 228.099 214.5 240.199 218.1 240.199C222 240.199 222.6 228.599 218.4 223.599C218.3 223.499 217.4 222.599 217.3 222.599C212.8 218.999 202.9 222.399 202.9 225.499ZM676.3 256.499C676.3 252.499 679.4 248.599 681.7 246.699C687.4 241.899 690.6 240.699 696.4 243.299C698.3 244.099 698.9 244.499 698.9 247.099C694.3 247.099 695.9 245.899 690.5 247.099C691.3 249.199 690.7 247.299 693.6 249.799C695.1 251.099 695.3 251.199 695.3 253.899C692 253.599 685.8 248.499 681.3 255.199C680.6 256.299 680.5 256.899 679.9 257.999C679.1 259.499 679.7 259.199 677.9 259.699C676.3 258.599 676.3 258.899 676.3 256.499ZM395.2 163.499C395.2 167.199 395.4 173.499 401.2 174.299C404.8 174.799 407.8 171.899 407.8 167.099C407.8 164.199 406 157.599 400.4 157.599C397.5 157.699 395.2 160.799 395.2 163.499ZM444.6 163.999C444.6 167.199 444.5 169.099 446.1 171.999C449.6 178.499 460.4 174.599 454.5 162.599C452.2 158.199 444.6 157.599 444.6 163.999ZM613.2 274.399C619.7 274.399 622.3 271.399 624.6 267.999C629.6 260.699 633.5 270.499 621.6 275.499C602.5 283.399 595.3 271.099 597.7 269.999C599 269.399 602.9 272.299 604.3 272.899C607 273.999 609.7 274.399 613.2 274.399ZM623.2 235.499C623.2 232.699 625.1 228.699 627.4 228.699C631.9 228.699 631.7 231.799 632.1 236.199C632.8 244.299 623.2 246.299 623.2 235.499ZM597.5 252.299C597.5 243.299 619.4 243.199 619.6 251.799C617.7 251.599 617.2 251.099 615.1 250.499C600.6 246.599 601 255.799 600.7 256.499C599.3 256.399 599.3 256.299 598.1 255.999L597.5 252.299ZM585.4 234.499C585.4 231.499 586 230.699 587.5 229.199C591.8 229.599 593.3 232.999 593.3 237.599C593.3 246.599 587.5 244.799 585.8 239.899C585.2 238.299 585.6 238.099 584.9 236.599C584 234.799 584 236.199 583.4 233.899C584.6 233.399 583.3 233.899 585.4 234.499ZM416.2 186.599C416.2 192.699 425.6 191.899 428.8 191.899C432 191.899 433.6 190.399 436.2 189.799V188.199C430.1 188.199 425.5 189.199 421.1 186.499C419.2 185.299 419.4 184.699 417.3 184.499C416.6 185.499 416.2 185.499 416.2 186.599ZM609.5 282.799C612.4 282.099 613.5 282.399 616.9 282.299C619.2 282.199 621.8 281.699 623.7 281.199C623.7 282.299 624.3 283.299 621.1 284.899C618.4 286.199 609.9 287.299 609.5 282.799ZM304.8 497.099C305 494.699 305.6 493.299 306.9 492.399C306.9 494.899 307.3 494.599 307.4 496.599C306.2 496.899 306.2 496.999 304.8 497.099ZM810.8 225.999C807.8 224.399 807.6 224.599 807.1 222.799C808.8 223.299 810.3 224.299 810.8 225.999ZM287 334.799C287.2 333.799 287.7 333.999 288.6 333.699V335.299C287.5 335.099 287.7 335.199 287 334.799ZM606.4 543.399C604.6 542.899 605.2 543.199 604.3 541.799C606.8 542.099 605.2 541.099 606.4 543.399ZM243.9 551.299C244.4 549.199 244 549.699 245.5 549.199C245 550.999 245.2 550.299 243.9 551.299ZM318.5 335.899C318.4 335.799 318.6 335.799 318.7 335.699C318.6 335.599 318.5 335.899 318.5 335.899Z" fill="black"/>
</svg>
